<?xml version="1.0" encoding="UTF-8"?>
<svg xmlns="http://www.w3.org/2000/svg" xmlns:xlink="http://www.w3.org/1999/xlink" width="80px" height="80px" viewBox="0 0 80 80" version="1.1">
<g id="surface1">
<path style=" stroke:none;fill-rule:evenodd;fill:rgb(0%,0%,0%);fill-opacity:1;" d="M 60 70 L 62.855469 70 L 62.855469 72.855469 L 60 72.855469 Z M 60 70 "/>
<path style=" stroke:none;fill-rule:evenodd;fill:rgb(0%,0%,0%);fill-opacity:1;" d="M 57.144531 70 L 60 70 L 60 72.855469 L 57.144531 72.855469 Z M 57.144531 70 "/>
<path style=" stroke:none;fill-rule:evenodd;fill:rgb(0%,0%,0%);fill-opacity:1;" d="M 54.285156 70 L 57.144531 70 L 57.144531 72.855469 L 54.285156 72.855469 Z M 54.285156 70 "/>
<path style=" stroke:none;fill-rule:evenodd;fill:rgb(0%,0%,0%);fill-opacity:1;" d="M 51.429688 70 L 54.289062 70 L 54.289062 72.855469 L 51.429688 72.855469 Z M 51.429688 70 "/>
<path style=" stroke:none;fill-rule:evenodd;fill:rgb(0%,0%,0%);fill-opacity:1;" d="M 48.570312 70 L 51.429688 70 L 51.429688 72.855469 L 48.570312 72.855469 Z M 48.570312 70 "/>
<path style=" stroke:none;fill-rule:evenodd;fill:rgb(0%,0%,0%);fill-opacity:1;" d="M 45.714844 70 L 48.570312 70 L 48.570312 72.855469 L 45.714844 72.855469 Z M 45.714844 70 "/>
<path style=" stroke:none;fill-rule:evenodd;fill:rgb(0%,0%,0%);fill-opacity:1;" d="M 42.855469 70 L 45.714844 70 L 45.714844 72.855469 L 42.855469 72.855469 Z M 42.855469 70 "/>
<path style=" stroke:none;fill-rule:evenodd;fill:rgb(0%,0%,0%);fill-opacity:1;" d="M 40 70 L 42.855469 70 L 42.855469 72.855469 L 40 72.855469 Z M 40 70 "/>
<path style=" stroke:none;fill-rule:evenodd;fill:rgb(0%,0%,0%);fill-opacity:1;" d="M 37.144531 70 L 40 70 L 40 72.855469 L 37.144531 72.855469 Z M 37.144531 70 "/>
<path style=" stroke:none;fill-rule:evenodd;fill:rgb(0%,0%,0%);fill-opacity:1;" d="M 34.285156 70 L 37.144531 70 L 37.144531 72.855469 L 34.285156 72.855469 Z M 34.285156 70 "/>
<path style=" stroke:none;fill-rule:evenodd;fill:rgb(0%,0%,0%);fill-opacity:1;" d="M 31.429688 70 L 34.285156 70 L 34.285156 72.855469 L 31.429688 72.855469 Z M 31.429688 70 "/>
<path style=" stroke:none;fill-rule:evenodd;fill:rgb(0%,0%,0%);fill-opacity:1;" d="M 28.570312 70 L 31.429688 70 L 31.429688 72.855469 L 28.570312 72.855469 Z M 28.570312 70 "/>
<path style=" stroke:none;fill-rule:evenodd;fill:rgb(0%,0%,0%);fill-opacity:1;" d="M 25.714844 70 L 28.574219 70 L 28.574219 72.855469 L 25.714844 72.855469 Z M 25.714844 70 "/>
<path style=" stroke:none;fill-rule:evenodd;fill:rgb(0%,0%,0%);fill-opacity:1;" d="M 22.855469 70 L 25.714844 70 L 25.714844 72.855469 L 22.855469 72.855469 Z M 22.855469 70 "/>
<path style=" stroke:none;fill-rule:evenodd;fill:rgb(0%,0%,0%);fill-opacity:1;" d="M 20 70 L 22.855469 70 L 22.855469 72.855469 L 20 72.855469 Z M 20 70 "/>
<path style=" stroke:none;fill-rule:evenodd;fill:rgb(0%,0%,0%);fill-opacity:1;" d="M 17.144531 70 L 20 70 L 20 72.855469 L 17.144531 72.855469 Z M 17.144531 70 "/>
<path style=" stroke:none;fill-rule:evenodd;fill:rgb(0%,0%,0%);fill-opacity:1;" d="M 14.285156 70 L 17.144531 70 L 17.144531 72.855469 L 14.285156 72.855469 Z M 14.285156 70 "/>
<path style=" stroke:none;fill-rule:evenodd;fill:rgb(0%,0%,0%);fill-opacity:1;" d="M 62.855469 67.144531 L 65.714844 67.144531 L 65.714844 70 L 62.855469 70 Z M 62.855469 67.144531 "/>
<path style=" stroke:none;fill-rule:evenodd;fill:rgb(35.686275%,43.137255%,88.235294%);fill-opacity:1;" d="M 60 67.144531 L 62.855469 67.144531 L 62.855469 70 L 60 70 Z M 60 67.144531 "/>
<path style=" stroke:none;fill-rule:evenodd;fill:rgb(35.686275%,43.137255%,88.235294%);fill-opacity:1;" d="M 57.144531 67.144531 L 60 67.144531 L 60 70 L 57.144531 70 Z M 57.144531 67.144531 "/>
<path style=" stroke:none;fill-rule:evenodd;fill:rgb(38.823529%,60.784314%,100%);fill-opacity:1;" d="M 54.285156 67.144531 L 57.144531 67.144531 L 57.144531 70 L 54.285156 70 Z M 54.285156 67.144531 "/>
<path style=" stroke:none;fill-rule:evenodd;fill:rgb(38.823529%,60.784314%,100%);fill-opacity:1;" d="M 51.429688 67.144531 L 54.289062 67.144531 L 54.289062 70 L 51.429688 70 Z M 51.429688 67.144531 "/>
<path style=" stroke:none;fill-rule:evenodd;fill:rgb(38.823529%,60.784314%,100%);fill-opacity:1;" d="M 48.570312 67.144531 L 51.429688 67.144531 L 51.429688 70 L 48.570312 70 Z M 48.570312 67.144531 "/>
<path style=" stroke:none;fill-rule:evenodd;fill:rgb(38.823529%,60.784314%,100%);fill-opacity:1;" d="M 45.714844 67.144531 L 48.570312 67.144531 L 48.570312 70 L 45.714844 70 Z M 45.714844 67.144531 "/>
<path style=" stroke:none;fill-rule:evenodd;fill:rgb(38.823529%,60.784314%,100%);fill-opacity:1;" d="M 42.855469 67.144531 L 45.714844 67.144531 L 45.714844 70 L 42.855469 70 Z M 42.855469 67.144531 "/>
<path style=" stroke:none;fill-rule:evenodd;fill:rgb(38.823529%,60.784314%,100%);fill-opacity:1;" d="M 40 67.144531 L 42.855469 67.144531 L 42.855469 70 L 40 70 Z M 40 67.144531 "/>
<path style=" stroke:none;fill-rule:evenodd;fill:rgb(38.823529%,60.784314%,100%);fill-opacity:1;" d="M 37.144531 67.144531 L 40 67.144531 L 40 70 L 37.144531 70 Z M 37.144531 67.144531 "/>
<path style=" stroke:none;fill-rule:evenodd;fill:rgb(38.823529%,60.784314%,100%);fill-opacity:1;" d="M 34.285156 67.144531 L 37.144531 67.144531 L 37.144531 70 L 34.285156 70 Z M 34.285156 67.144531 "/>
<path style=" stroke:none;fill-rule:evenodd;fill:rgb(38.823529%,60.784314%,100%);fill-opacity:1;" d="M 31.429688 67.144531 L 34.285156 67.144531 L 34.285156 70 L 31.429688 70 Z M 31.429688 67.144531 "/>
<path style=" stroke:none;fill-rule:evenodd;fill:rgb(38.823529%,60.784314%,100%);fill-opacity:1;" d="M 28.570312 67.144531 L 31.429688 67.144531 L 31.429688 70 L 28.570312 70 Z M 28.570312 67.144531 "/>
<path style=" stroke:none;fill-rule:evenodd;fill:rgb(38.823529%,60.784314%,100%);fill-opacity:1;" d="M 25.714844 67.144531 L 28.574219 67.144531 L 28.574219 70 L 25.714844 70 Z M 25.714844 67.144531 "/>
<path style=" stroke:none;fill-rule:evenodd;fill:rgb(38.823529%,60.784314%,100%);fill-opacity:1;" d="M 22.855469 67.144531 L 25.714844 67.144531 L 25.714844 70 L 22.855469 70 Z M 22.855469 67.144531 "/>
<path style=" stroke:none;fill-rule:evenodd;fill:rgb(38.823529%,60.784314%,100%);fill-opacity:1;" d="M 20 67.144531 L 22.855469 67.144531 L 22.855469 70 L 20 70 Z M 20 67.144531 "/>
<path style=" stroke:none;fill-rule:evenodd;fill:rgb(38.823529%,60.784314%,100%);fill-opacity:1;" d="M 17.144531 67.144531 L 20 67.144531 L 20 70 L 17.144531 70 Z M 17.144531 67.144531 "/>
<path style=" stroke:none;fill-rule:evenodd;fill:rgb(35.686275%,43.137255%,88.235294%);fill-opacity:1;" d="M 14.285156 67.144531 L 17.144531 67.144531 L 17.144531 70 L 14.285156 70 Z M 14.285156 67.144531 "/>
<path style=" stroke:none;fill-rule:evenodd;fill:rgb(0%,0%,0%);fill-opacity:1;" d="M 11.429688 67.144531 L 14.285156 67.144531 L 14.285156 70 L 11.429688 70 Z M 11.429688 67.144531 "/>
<path style=" stroke:none;fill-rule:evenodd;fill:rgb(0%,0%,0%);fill-opacity:1;" d="M 65.714844 64.285156 L 68.570312 64.285156 L 68.570312 67.144531 L 65.714844 67.144531 Z M 65.714844 64.285156 "/>
<path style=" stroke:none;fill-rule:evenodd;fill:rgb(35.686275%,43.137255%,88.235294%);fill-opacity:1;" d="M 62.855469 64.285156 L 65.714844 64.285156 L 65.714844 67.144531 L 62.855469 67.144531 Z M 62.855469 64.285156 "/>
<path style=" stroke:none;fill-rule:evenodd;fill:rgb(35.686275%,43.137255%,88.235294%);fill-opacity:1;" d="M 60 64.285156 L 62.855469 64.285156 L 62.855469 67.144531 L 60 67.144531 Z M 60 64.285156 "/>
<path style=" stroke:none;fill-rule:evenodd;fill:rgb(38.823529%,60.784314%,100%);fill-opacity:1;" d="M 57.144531 64.285156 L 60 64.285156 L 60 67.144531 L 57.144531 67.144531 Z M 57.144531 64.285156 "/>
<path style=" stroke:none;fill-rule:evenodd;fill:rgb(38.823529%,60.784314%,100%);fill-opacity:1;" d="M 54.285156 64.285156 L 57.144531 64.285156 L 57.144531 67.144531 L 54.285156 67.144531 Z M 54.285156 64.285156 "/>
<path style=" stroke:none;fill-rule:evenodd;fill:rgb(38.823529%,60.784314%,100%);fill-opacity:1;" d="M 51.429688 64.285156 L 54.289062 64.285156 L 54.289062 67.144531 L 51.429688 67.144531 Z M 51.429688 64.285156 "/>
<path style=" stroke:none;fill-rule:evenodd;fill:rgb(38.823529%,60.784314%,100%);fill-opacity:1;" d="M 48.570312 64.285156 L 51.429688 64.285156 L 51.429688 67.144531 L 48.570312 67.144531 Z M 48.570312 64.285156 "/>
<path style=" stroke:none;fill-rule:evenodd;fill:rgb(38.823529%,60.784314%,100%);fill-opacity:1;" d="M 45.714844 64.285156 L 48.570312 64.285156 L 48.570312 67.144531 L 45.714844 67.144531 Z M 45.714844 64.285156 "/>
<path style=" stroke:none;fill-rule:evenodd;fill:rgb(38.823529%,60.784314%,100%);fill-opacity:1;" d="M 42.855469 64.285156 L 45.714844 64.285156 L 45.714844 67.144531 L 42.855469 67.144531 Z M 42.855469 64.285156 "/>
<path style=" stroke:none;fill-rule:evenodd;fill:rgb(38.823529%,60.784314%,100%);fill-opacity:1;" d="M 40 64.285156 L 42.855469 64.285156 L 42.855469 67.144531 L 40 67.144531 Z M 40 64.285156 "/>
<path style=" stroke:none;fill-rule:evenodd;fill:rgb(38.823529%,60.784314%,100%);fill-opacity:1;" d="M 37.144531 64.285156 L 40 64.285156 L 40 67.144531 L 37.144531 67.144531 Z M 37.144531 64.285156 "/>
<path style=" stroke:none;fill-rule:evenodd;fill:rgb(38.823529%,60.784314%,100%);fill-opacity:1;" d="M 34.285156 64.285156 L 37.144531 64.285156 L 37.144531 67.144531 L 34.285156 67.144531 Z M 34.285156 64.285156 "/>
<path style=" stroke:none;fill-rule:evenodd;fill:rgb(38.823529%,60.784314%,100%);fill-opacity:1;" d="M 31.429688 64.285156 L 34.285156 64.285156 L 34.285156 67.144531 L 31.429688 67.144531 Z M 31.429688 64.285156 "/>
<path style=" stroke:none;fill-rule:evenodd;fill:rgb(38.823529%,60.784314%,100%);fill-opacity:1;" d="M 28.570312 64.285156 L 31.429688 64.285156 L 31.429688 67.144531 L 28.570312 67.144531 Z M 28.570312 64.285156 "/>
<path style=" stroke:none;fill-rule:evenodd;fill:rgb(38.823529%,60.784314%,100%);fill-opacity:1;" d="M 25.714844 64.285156 L 28.574219 64.285156 L 28.574219 67.144531 L 25.714844 67.144531 Z M 25.714844 64.285156 "/>
<path style=" stroke:none;fill-rule:evenodd;fill:rgb(38.823529%,60.784314%,100%);fill-opacity:1;" d="M 22.855469 64.285156 L 25.714844 64.285156 L 25.714844 67.144531 L 22.855469 67.144531 Z M 22.855469 64.285156 "/>
<path style=" stroke:none;fill-rule:evenodd;fill:rgb(38.823529%,60.784314%,100%);fill-opacity:1;" d="M 20 64.285156 L 22.855469 64.285156 L 22.855469 67.144531 L 20 67.144531 Z M 20 64.285156 "/>
<path style=" stroke:none;fill-rule:evenodd;fill:rgb(38.823529%,60.784314%,100%);fill-opacity:1;" d="M 17.144531 64.285156 L 20 64.285156 L 20 67.144531 L 17.144531 67.144531 Z M 17.144531 64.285156 "/>
<path style=" stroke:none;fill-rule:evenodd;fill:rgb(38.823529%,60.784314%,100%);fill-opacity:1;" d="M 14.285156 64.285156 L 17.144531 64.285156 L 17.144531 67.144531 L 14.285156 67.144531 Z M 14.285156 64.285156 "/>
<path style=" stroke:none;fill-rule:evenodd;fill:rgb(0%,0%,0%);fill-opacity:1;" d="M 11.429688 64.285156 L 14.285156 64.285156 L 14.285156 67.144531 L 11.429688 67.144531 Z M 11.429688 64.285156 "/>
<path style=" stroke:none;fill-rule:evenodd;fill:rgb(0%,0%,0%);fill-opacity:1;" d="M 68.570312 61.425781 L 71.429688 61.425781 L 71.429688 64.285156 L 68.570312 64.285156 Z M 68.570312 61.425781 "/>
<path style=" stroke:none;fill-rule:evenodd;fill:rgb(35.686275%,43.137255%,88.235294%);fill-opacity:1;" d="M 65.714844 61.425781 L 68.570312 61.425781 L 68.570312 64.285156 L 65.714844 64.285156 Z M 65.714844 61.425781 "/>
<path style=" stroke:none;fill-rule:evenodd;fill:rgb(35.686275%,43.137255%,88.235294%);fill-opacity:1;" d="M 62.855469 61.425781 L 65.714844 61.425781 L 65.714844 64.285156 L 62.855469 64.285156 Z M 62.855469 61.425781 "/>
<path style=" stroke:none;fill-rule:evenodd;fill:rgb(100%,100%,100%);fill-opacity:1;" d="M 60 61.425781 L 62.855469 61.425781 L 62.855469 64.285156 L 60 64.285156 Z M 60 61.425781 "/>
<path style=" stroke:none;fill-rule:evenodd;fill:rgb(38.823529%,60.784314%,100%);fill-opacity:1;" d="M 57.144531 61.425781 L 60 61.425781 L 60 64.285156 L 57.144531 64.285156 Z M 57.144531 61.425781 "/>
<path style=" stroke:none;fill-rule:evenodd;fill:rgb(100%,100%,100%);fill-opacity:1;" d="M 54.285156 61.425781 L 57.144531 61.425781 L 57.144531 64.285156 L 54.285156 64.285156 Z M 54.285156 61.425781 "/>
<path style=" stroke:none;fill-rule:evenodd;fill:rgb(38.823529%,60.784314%,100%);fill-opacity:1;" d="M 51.429688 61.425781 L 54.289062 61.425781 L 54.289062 64.285156 L 51.429688 64.285156 Z M 51.429688 61.425781 "/>
<path style=" stroke:none;fill-rule:evenodd;fill:rgb(100%,100%,100%);fill-opacity:1;" d="M 48.570312 61.425781 L 51.429688 61.425781 L 51.429688 64.285156 L 48.570312 64.285156 Z M 48.570312 61.425781 "/>
<path style=" stroke:none;fill-rule:evenodd;fill:rgb(38.823529%,60.784314%,100%);fill-opacity:1;" d="M 45.714844 61.425781 L 48.570312 61.425781 L 48.570312 64.285156 L 45.714844 64.285156 Z M 45.714844 61.425781 "/>
<path style=" stroke:none;fill-rule:evenodd;fill:rgb(100%,100%,100%);fill-opacity:1;" d="M 42.855469 61.425781 L 45.714844 61.425781 L 45.714844 64.285156 L 42.855469 64.285156 Z M 42.855469 61.425781 "/>
<path style=" stroke:none;fill-rule:evenodd;fill:rgb(38.823529%,60.784314%,100%);fill-opacity:1;" d="M 40 61.425781 L 42.855469 61.425781 L 42.855469 64.285156 L 40 64.285156 Z M 40 61.425781 "/>
<path style=" stroke:none;fill-rule:evenodd;fill:rgb(100%,100%,100%);fill-opacity:1;" d="M 37.144531 61.425781 L 40 61.425781 L 40 64.285156 L 37.144531 64.285156 Z M 37.144531 61.425781 "/>
<path style=" stroke:none;fill-rule:evenodd;fill:rgb(38.823529%,60.784314%,100%);fill-opacity:1;" d="M 34.285156 61.425781 L 37.144531 61.425781 L 37.144531 64.285156 L 34.285156 64.285156 Z M 34.285156 61.425781 "/>
<path style=" stroke:none;fill-rule:evenodd;fill:rgb(100%,100%,100%);fill-opacity:1;" d="M 31.429688 61.425781 L 34.285156 61.425781 L 34.285156 64.285156 L 31.429688 64.285156 Z M 31.429688 61.425781 "/>
<path style=" stroke:none;fill-rule:evenodd;fill:rgb(38.823529%,60.784314%,100%);fill-opacity:1;" d="M 28.570312 61.425781 L 31.429688 61.425781 L 31.429688 64.285156 L 28.570312 64.285156 Z M 28.570312 61.425781 "/>
<path style=" stroke:none;fill-rule:evenodd;fill:rgb(100%,100%,100%);fill-opacity:1;" d="M 25.714844 61.425781 L 28.574219 61.425781 L 28.574219 64.285156 L 25.714844 64.285156 Z M 25.714844 61.425781 "/>
<path style=" stroke:none;fill-rule:evenodd;fill:rgb(38.823529%,60.784314%,100%);fill-opacity:1;" d="M 22.855469 61.425781 L 25.714844 61.425781 L 25.714844 64.285156 L 22.855469 64.285156 Z M 22.855469 61.425781 "/>
<path style=" stroke:none;fill-rule:evenodd;fill:rgb(100%,100%,100%);fill-opacity:1;" d="M 20 61.425781 L 22.855469 61.425781 L 22.855469 64.285156 L 20 64.285156 Z M 20 61.425781 "/>
<path style=" stroke:none;fill-rule:evenodd;fill:rgb(38.823529%,60.784314%,100%);fill-opacity:1;" d="M 17.144531 61.425781 L 20 61.425781 L 20 64.285156 L 17.144531 64.285156 Z M 17.144531 61.425781 "/>
<path style=" stroke:none;fill-rule:evenodd;fill:rgb(38.823529%,60.784314%,100%);fill-opacity:1;" d="M 14.285156 61.425781 L 17.144531 61.425781 L 17.144531 64.285156 L 14.285156 64.285156 Z M 14.285156 61.425781 "/>
<path style=" stroke:none;fill-rule:evenodd;fill:rgb(0%,0%,0%);fill-opacity:1;" d="M 11.429688 61.425781 L 14.285156 61.425781 L 14.285156 64.285156 L 11.429688 64.285156 Z M 11.429688 61.425781 "/>
<path style=" stroke:none;fill-rule:evenodd;fill:rgb(0%,0%,0%);fill-opacity:1;" d="M 68.570312 58.570312 L 71.429688 58.570312 L 71.429688 61.429688 L 68.570312 61.429688 Z M 68.570312 58.570312 "/>
<path style=" stroke:none;fill-rule:evenodd;fill:rgb(35.686275%,43.137255%,88.235294%);fill-opacity:1;" d="M 65.714844 58.570312 L 68.570312 58.570312 L 68.570312 61.429688 L 65.714844 61.429688 Z M 65.714844 58.570312 "/>
<path style=" stroke:none;fill-rule:evenodd;fill:rgb(35.686275%,43.137255%,88.235294%);fill-opacity:1;" d="M 62.855469 58.570312 L 65.714844 58.570312 L 65.714844 61.429688 L 62.855469 61.429688 Z M 62.855469 58.570312 "/>
<path style=" stroke:none;fill-rule:evenodd;fill:rgb(100%,100%,100%);fill-opacity:1;" d="M 60 58.570312 L 62.855469 58.570312 L 62.855469 61.429688 L 60 61.429688 Z M 60 58.570312 "/>
<path style=" stroke:none;fill-rule:evenodd;fill:rgb(38.823529%,60.784314%,100%);fill-opacity:1;" d="M 57.144531 58.570312 L 60 58.570312 L 60 61.429688 L 57.144531 61.429688 Z M 57.144531 58.570312 "/>
<path style=" stroke:none;fill-rule:evenodd;fill:rgb(100%,100%,100%);fill-opacity:1;" d="M 54.285156 58.570312 L 57.144531 58.570312 L 57.144531 61.429688 L 54.285156 61.429688 Z M 54.285156 58.570312 "/>
<path style=" stroke:none;fill-rule:evenodd;fill:rgb(38.823529%,60.784314%,100%);fill-opacity:1;" d="M 51.429688 58.570312 L 54.289062 58.570312 L 54.289062 61.429688 L 51.429688 61.429688 Z M 51.429688 58.570312 "/>
<path style=" stroke:none;fill-rule:evenodd;fill:rgb(100%,100%,100%);fill-opacity:1;" d="M 48.570312 58.570312 L 51.429688 58.570312 L 51.429688 61.429688 L 48.570312 61.429688 Z M 48.570312 58.570312 "/>
<path style=" stroke:none;fill-rule:evenodd;fill:rgb(38.823529%,60.784314%,100%);fill-opacity:1;" d="M 45.714844 58.570312 L 48.570312 58.570312 L 48.570312 61.429688 L 45.714844 61.429688 Z M 45.714844 58.570312 "/>
<path style=" stroke:none;fill-rule:evenodd;fill:rgb(100%,100%,100%);fill-opacity:1;" d="M 42.855469 58.570312 L 45.714844 58.570312 L 45.714844 61.429688 L 42.855469 61.429688 Z M 42.855469 58.570312 "/>
<path style=" stroke:none;fill-rule:evenodd;fill:rgb(100%,100%,100%);fill-opacity:1;" d="M 40 58.570312 L 42.855469 58.570312 L 42.855469 61.429688 L 40 61.429688 Z M 40 58.570312 "/>
<path style=" stroke:none;fill-rule:evenodd;fill:rgb(100%,100%,100%);fill-opacity:1;" d="M 37.144531 58.570312 L 40 58.570312 L 40 61.429688 L 37.144531 61.429688 Z M 37.144531 58.570312 "/>
<path style=" stroke:none;fill-rule:evenodd;fill:rgb(38.823529%,60.784314%,100%);fill-opacity:1;" d="M 34.285156 58.570312 L 37.144531 58.570312 L 37.144531 61.429688 L 34.285156 61.429688 Z M 34.285156 58.570312 "/>
<path style=" stroke:none;fill-rule:evenodd;fill:rgb(100%,100%,100%);fill-opacity:1;" d="M 31.429688 58.570312 L 34.285156 58.570312 L 34.285156 61.429688 L 31.429688 61.429688 Z M 31.429688 58.570312 "/>
<path style=" stroke:none;fill-rule:evenodd;fill:rgb(38.823529%,60.784314%,100%);fill-opacity:1;" d="M 28.570312 58.570312 L 31.429688 58.570312 L 31.429688 61.429688 L 28.570312 61.429688 Z M 28.570312 58.570312 "/>
<path style=" stroke:none;fill-rule:evenodd;fill:rgb(100%,100%,100%);fill-opacity:1;" d="M 25.714844 58.570312 L 28.574219 58.570312 L 28.574219 61.429688 L 25.714844 61.429688 Z M 25.714844 58.570312 "/>
<path style=" stroke:none;fill-rule:evenodd;fill:rgb(38.823529%,60.784314%,100%);fill-opacity:1;" d="M 22.855469 58.570312 L 25.714844 58.570312 L 25.714844 61.429688 L 22.855469 61.429688 Z M 22.855469 58.570312 "/>
<path style=" stroke:none;fill-rule:evenodd;fill:rgb(38.823529%,60.784314%,100%);fill-opacity:1;" d="M 20 58.570312 L 22.855469 58.570312 L 22.855469 61.429688 L 20 61.429688 Z M 20 58.570312 "/>
<path style=" stroke:none;fill-rule:evenodd;fill:rgb(100%,100%,100%);fill-opacity:1;" d="M 17.144531 58.570312 L 20 58.570312 L 20 61.429688 L 17.144531 61.429688 Z M 17.144531 58.570312 "/>
<path style=" stroke:none;fill-rule:evenodd;fill:rgb(38.823529%,60.784314%,100%);fill-opacity:1;" d="M 14.285156 58.570312 L 17.144531 58.570312 L 17.144531 61.429688 L 14.285156 61.429688 Z M 14.285156 58.570312 "/>
<path style=" stroke:none;fill-rule:evenodd;fill:rgb(0%,0%,0%);fill-opacity:1;" d="M 11.429688 58.570312 L 14.285156 58.570312 L 14.285156 61.429688 L 11.429688 61.429688 Z M 11.429688 58.570312 "/>
<path style=" stroke:none;fill-rule:evenodd;fill:rgb(0%,0%,0%);fill-opacity:1;" d="M 68.570312 55.714844 L 71.429688 55.714844 L 71.429688 58.570312 L 68.570312 58.570312 Z M 68.570312 55.714844 "/>
<path style=" stroke:none;fill-rule:evenodd;fill:rgb(35.686275%,43.137255%,88.235294%);fill-opacity:1;" d="M 65.714844 55.714844 L 68.570312 55.714844 L 68.570312 58.570312 L 65.714844 58.570312 Z M 65.714844 55.714844 "/>
<path style=" stroke:none;fill-rule:evenodd;fill:rgb(35.686275%,43.137255%,88.235294%);fill-opacity:1;" d="M 62.855469 55.714844 L 65.714844 55.714844 L 65.714844 58.570312 L 62.855469 58.570312 Z M 62.855469 55.714844 "/>
<path style=" stroke:none;fill-rule:evenodd;fill:rgb(100%,100%,100%);fill-opacity:1;" d="M 60 55.714844 L 62.855469 55.714844 L 62.855469 58.570312 L 60 58.570312 Z M 60 55.714844 "/>
<path style=" stroke:none;fill-rule:evenodd;fill:rgb(38.823529%,60.784314%,100%);fill-opacity:1;" d="M 57.144531 55.714844 L 60 55.714844 L 60 58.570312 L 57.144531 58.570312 Z M 57.144531 55.714844 "/>
<path style=" stroke:none;fill-rule:evenodd;fill:rgb(100%,100%,100%);fill-opacity:1;" d="M 54.285156 55.714844 L 57.144531 55.714844 L 57.144531 58.570312 L 54.285156 58.570312 Z M 54.285156 55.714844 "/>
<path style=" stroke:none;fill-rule:evenodd;fill:rgb(38.823529%,60.784314%,100%);fill-opacity:1;" d="M 51.429688 55.714844 L 54.289062 55.714844 L 54.289062 58.570312 L 51.429688 58.570312 Z M 51.429688 55.714844 "/>
<path style=" stroke:none;fill-rule:evenodd;fill:rgb(100%,100%,100%);fill-opacity:1;" d="M 48.570312 55.714844 L 51.429688 55.714844 L 51.429688 58.570312 L 48.570312 58.570312 Z M 48.570312 55.714844 "/>
<path style=" stroke:none;fill-rule:evenodd;fill:rgb(38.823529%,60.784314%,100%);fill-opacity:1;" d="M 45.714844 55.714844 L 48.570312 55.714844 L 48.570312 58.570312 L 45.714844 58.570312 Z M 45.714844 55.714844 "/>
<path style=" stroke:none;fill-rule:evenodd;fill:rgb(100%,100%,100%);fill-opacity:1;" d="M 42.855469 55.714844 L 45.714844 55.714844 L 45.714844 58.570312 L 42.855469 58.570312 Z M 42.855469 55.714844 "/>
<path style=" stroke:none;fill-rule:evenodd;fill:rgb(38.823529%,60.784314%,100%);fill-opacity:1;" d="M 40 55.714844 L 42.855469 55.714844 L 42.855469 58.570312 L 40 58.570312 Z M 40 55.714844 "/>
<path style=" stroke:none;fill-rule:evenodd;fill:rgb(100%,100%,100%);fill-opacity:1;" d="M 37.144531 55.714844 L 40 55.714844 L 40 58.570312 L 37.144531 58.570312 Z M 37.144531 55.714844 "/>
<path style=" stroke:none;fill-rule:evenodd;fill:rgb(38.823529%,60.784314%,100%);fill-opacity:1;" d="M 34.285156 55.714844 L 37.144531 55.714844 L 37.144531 58.570312 L 34.285156 58.570312 Z M 34.285156 55.714844 "/>
<path style=" stroke:none;fill-rule:evenodd;fill:rgb(100%,100%,100%);fill-opacity:1;" d="M 31.429688 55.714844 L 34.285156 55.714844 L 34.285156 58.570312 L 31.429688 58.570312 Z M 31.429688 55.714844 "/>
<path style=" stroke:none;fill-rule:evenodd;fill:rgb(100%,100%,100%);fill-opacity:1;" d="M 28.570312 55.714844 L 31.429688 55.714844 L 31.429688 58.570312 L 28.570312 58.570312 Z M 28.570312 55.714844 "/>
<path style=" stroke:none;fill-rule:evenodd;fill:rgb(100%,100%,100%);fill-opacity:1;" d="M 25.714844 55.714844 L 28.574219 55.714844 L 28.574219 58.570312 L 25.714844 58.570312 Z M 25.714844 55.714844 "/>
<path style=" stroke:none;fill-rule:evenodd;fill:rgb(38.823529%,60.784314%,100%);fill-opacity:1;" d="M 22.855469 55.714844 L 25.714844 55.714844 L 25.714844 58.570312 L 22.855469 58.570312 Z M 22.855469 55.714844 "/>
<path style=" stroke:none;fill-rule:evenodd;fill:rgb(38.823529%,60.784314%,100%);fill-opacity:1;" d="M 20 55.714844 L 22.855469 55.714844 L 22.855469 58.570312 L 20 58.570312 Z M 20 55.714844 "/>
<path style=" stroke:none;fill-rule:evenodd;fill:rgb(100%,100%,100%);fill-opacity:1;" d="M 17.144531 55.714844 L 20 55.714844 L 20 58.570312 L 17.144531 58.570312 Z M 17.144531 55.714844 "/>
<path style=" stroke:none;fill-rule:evenodd;fill:rgb(38.823529%,60.784314%,100%);fill-opacity:1;" d="M 14.285156 55.714844 L 17.144531 55.714844 L 17.144531 58.570312 L 14.285156 58.570312 Z M 14.285156 55.714844 "/>
<path style=" stroke:none;fill-rule:evenodd;fill:rgb(0%,0%,0%);fill-opacity:1;" d="M 11.429688 55.714844 L 14.285156 55.714844 L 14.285156 58.570312 L 11.429688 58.570312 Z M 11.429688 55.714844 "/>
<path style=" stroke:none;fill-rule:evenodd;fill:rgb(0%,0%,0%);fill-opacity:1;" d="M 68.570312 52.855469 L 71.429688 52.855469 L 71.429688 55.714844 L 68.570312 55.714844 Z M 68.570312 52.855469 "/>
<path style=" stroke:none;fill-rule:evenodd;fill:rgb(35.686275%,43.137255%,88.235294%);fill-opacity:1;" d="M 65.714844 52.855469 L 68.570312 52.855469 L 68.570312 55.714844 L 65.714844 55.714844 Z M 65.714844 52.855469 "/>
<path style=" stroke:none;fill-rule:evenodd;fill:rgb(35.686275%,43.137255%,88.235294%);fill-opacity:1;" d="M 62.855469 52.855469 L 65.714844 52.855469 L 65.714844 55.714844 L 62.855469 55.714844 Z M 62.855469 52.855469 "/>
<path style=" stroke:none;fill-rule:evenodd;fill:rgb(100%,100%,100%);fill-opacity:1;" d="M 60 52.855469 L 62.855469 52.855469 L 62.855469 55.714844 L 60 55.714844 Z M 60 52.855469 "/>
<path style=" stroke:none;fill-rule:evenodd;fill:rgb(38.823529%,60.784314%,100%);fill-opacity:1;" d="M 57.144531 52.855469 L 60 52.855469 L 60 55.714844 L 57.144531 55.714844 Z M 57.144531 52.855469 "/>
<path style=" stroke:none;fill-rule:evenodd;fill:rgb(100%,100%,100%);fill-opacity:1;" d="M 54.285156 52.855469 L 57.144531 52.855469 L 57.144531 55.714844 L 54.285156 55.714844 Z M 54.285156 52.855469 "/>
<path style=" stroke:none;fill-rule:evenodd;fill:rgb(38.823529%,60.784314%,100%);fill-opacity:1;" d="M 51.429688 52.855469 L 54.289062 52.855469 L 54.289062 55.714844 L 51.429688 55.714844 Z M 51.429688 52.855469 "/>
<path style=" stroke:none;fill-rule:evenodd;fill:rgb(100%,100%,100%);fill-opacity:1;" d="M 48.570312 52.855469 L 51.429688 52.855469 L 51.429688 55.714844 L 48.570312 55.714844 Z M 48.570312 52.855469 "/>
<path style=" stroke:none;fill-rule:evenodd;fill:rgb(38.823529%,60.784314%,100%);fill-opacity:1;" d="M 45.714844 52.855469 L 48.570312 52.855469 L 48.570312 55.714844 L 45.714844 55.714844 Z M 45.714844 52.855469 "/>
<path style=" stroke:none;fill-rule:evenodd;fill:rgb(100%,100%,100%);fill-opacity:1;" d="M 42.855469 52.855469 L 45.714844 52.855469 L 45.714844 55.714844 L 42.855469 55.714844 Z M 42.855469 52.855469 "/>
<path style=" stroke:none;fill-rule:evenodd;fill:rgb(38.823529%,60.784314%,100%);fill-opacity:1;" d="M 40 52.855469 L 42.855469 52.855469 L 42.855469 55.714844 L 40 55.714844 Z M 40 52.855469 "/>
<path style=" stroke:none;fill-rule:evenodd;fill:rgb(100%,100%,100%);fill-opacity:1;" d="M 37.144531 52.855469 L 40 52.855469 L 40 55.714844 L 37.144531 55.714844 Z M 37.144531 52.855469 "/>
<path style=" stroke:none;fill-rule:evenodd;fill:rgb(38.823529%,60.784314%,100%);fill-opacity:1;" d="M 34.285156 52.855469 L 37.144531 52.855469 L 37.144531 55.714844 L 34.285156 55.714844 Z M 34.285156 52.855469 "/>
<path style=" stroke:none;fill-rule:evenodd;fill:rgb(100%,100%,100%);fill-opacity:1;" d="M 31.429688 52.855469 L 34.285156 52.855469 L 34.285156 55.714844 L 31.429688 55.714844 Z M 31.429688 52.855469 "/>
<path style=" stroke:none;fill-rule:evenodd;fill:rgb(38.823529%,60.784314%,100%);fill-opacity:1;" d="M 28.570312 52.855469 L 31.429688 52.855469 L 31.429688 55.714844 L 28.570312 55.714844 Z M 28.570312 52.855469 "/>
<path style=" stroke:none;fill-rule:evenodd;fill:rgb(100%,100%,100%);fill-opacity:1;" d="M 25.714844 52.855469 L 28.574219 52.855469 L 28.574219 55.714844 L 25.714844 55.714844 Z M 25.714844 52.855469 "/>
<path style=" stroke:none;fill-rule:evenodd;fill:rgb(38.823529%,60.784314%,100%);fill-opacity:1;" d="M 22.855469 52.855469 L 25.714844 52.855469 L 25.714844 55.714844 L 22.855469 55.714844 Z M 22.855469 52.855469 "/>
<path style=" stroke:none;fill-rule:evenodd;fill:rgb(38.823529%,60.784314%,100%);fill-opacity:1;" d="M 20 52.855469 L 22.855469 52.855469 L 22.855469 55.714844 L 20 55.714844 Z M 20 52.855469 "/>
<path style=" stroke:none;fill-rule:evenodd;fill:rgb(100%,100%,100%);fill-opacity:1;" d="M 17.144531 52.855469 L 20 52.855469 L 20 55.714844 L 17.144531 55.714844 Z M 17.144531 52.855469 "/>
<path style=" stroke:none;fill-rule:evenodd;fill:rgb(38.823529%,60.784314%,100%);fill-opacity:1;" d="M 14.285156 52.855469 L 17.144531 52.855469 L 17.144531 55.714844 L 14.285156 55.714844 Z M 14.285156 52.855469 "/>
<path style=" stroke:none;fill-rule:evenodd;fill:rgb(0%,0%,0%);fill-opacity:1;" d="M 11.429688 52.855469 L 14.285156 52.855469 L 14.285156 55.714844 L 11.429688 55.714844 Z M 11.429688 52.855469 "/>
<path style=" stroke:none;fill-rule:evenodd;fill:rgb(0%,0%,0%);fill-opacity:1;" d="M 68.570312 50 L 71.429688 50 L 71.429688 52.855469 L 68.570312 52.855469 Z M 68.570312 50 "/>
<path style=" stroke:none;fill-rule:evenodd;fill:rgb(35.686275%,43.137255%,88.235294%);fill-opacity:1;" d="M 65.714844 50 L 68.570312 50 L 68.570312 52.855469 L 65.714844 52.855469 Z M 65.714844 50 "/>
<path style=" stroke:none;fill-rule:evenodd;fill:rgb(35.686275%,43.137255%,88.235294%);fill-opacity:1;" d="M 62.855469 50 L 65.714844 50 L 65.714844 52.855469 L 62.855469 52.855469 Z M 62.855469 50 "/>
<path style=" stroke:none;fill-rule:evenodd;fill:rgb(100%,100%,100%);fill-opacity:1;" d="M 60 50 L 62.855469 50 L 62.855469 52.855469 L 60 52.855469 Z M 60 50 "/>
<path style=" stroke:none;fill-rule:evenodd;fill:rgb(100%,100%,100%);fill-opacity:1;" d="M 57.144531 50 L 60 50 L 60 52.855469 L 57.144531 52.855469 Z M 57.144531 50 "/>
<path style=" stroke:none;fill-rule:evenodd;fill:rgb(100%,100%,100%);fill-opacity:1;" d="M 54.285156 50 L 57.144531 50 L 57.144531 52.855469 L 54.285156 52.855469 Z M 54.285156 50 "/>
<path style=" stroke:none;fill-rule:evenodd;fill:rgb(38.823529%,60.784314%,100%);fill-opacity:1;" d="M 51.429688 50 L 54.289062 50 L 54.289062 52.855469 L 51.429688 52.855469 Z M 51.429688 50 "/>
<path style=" stroke:none;fill-rule:evenodd;fill:rgb(100%,100%,100%);fill-opacity:1;" d="M 48.570312 50 L 51.429688 50 L 51.429688 52.855469 L 48.570312 52.855469 Z M 48.570312 50 "/>
<path style=" stroke:none;fill-rule:evenodd;fill:rgb(38.823529%,60.784314%,100%);fill-opacity:1;" d="M 45.714844 50 L 48.570312 50 L 48.570312 52.855469 L 45.714844 52.855469 Z M 45.714844 50 "/>
<path style=" stroke:none;fill-rule:evenodd;fill:rgb(38.823529%,60.784314%,100%);fill-opacity:1;" d="M 42.855469 50 L 45.714844 50 L 45.714844 52.855469 L 42.855469 52.855469 Z M 42.855469 50 "/>
<path style=" stroke:none;fill-rule:evenodd;fill:rgb(100%,100%,100%);fill-opacity:1;" d="M 40 50 L 42.855469 50 L 42.855469 52.855469 L 40 52.855469 Z M 40 50 "/>
<path style=" stroke:none;fill-rule:evenodd;fill:rgb(38.823529%,60.784314%,100%);fill-opacity:1;" d="M 37.144531 50 L 40 50 L 40 52.855469 L 37.144531 52.855469 Z M 37.144531 50 "/>
<path style=" stroke:none;fill-rule:evenodd;fill:rgb(38.823529%,60.784314%,100%);fill-opacity:1;" d="M 34.285156 50 L 37.144531 50 L 37.144531 52.855469 L 34.285156 52.855469 Z M 34.285156 50 "/>
<path style=" stroke:none;fill-rule:evenodd;fill:rgb(100%,100%,100%);fill-opacity:1;" d="M 31.429688 50 L 34.285156 50 L 34.285156 52.855469 L 31.429688 52.855469 Z M 31.429688 50 "/>
<path style=" stroke:none;fill-rule:evenodd;fill:rgb(38.823529%,60.784314%,100%);fill-opacity:1;" d="M 28.570312 50 L 31.429688 50 L 31.429688 52.855469 L 28.570312 52.855469 Z M 28.570312 50 "/>
<path style=" stroke:none;fill-rule:evenodd;fill:rgb(100%,100%,100%);fill-opacity:1;" d="M 25.714844 50 L 28.574219 50 L 28.574219 52.855469 L 25.714844 52.855469 Z M 25.714844 50 "/>
<path style=" stroke:none;fill-rule:evenodd;fill:rgb(38.823529%,60.784314%,100%);fill-opacity:1;" d="M 22.855469 50 L 25.714844 50 L 25.714844 52.855469 L 22.855469 52.855469 Z M 22.855469 50 "/>
<path style=" stroke:none;fill-rule:evenodd;fill:rgb(100%,100%,100%);fill-opacity:1;" d="M 20 50 L 22.855469 50 L 22.855469 52.855469 L 20 52.855469 Z M 20 50 "/>
<path style=" stroke:none;fill-rule:evenodd;fill:rgb(38.823529%,60.784314%,100%);fill-opacity:1;" d="M 17.144531 50 L 20 50 L 20 52.855469 L 17.144531 52.855469 Z M 17.144531 50 "/>
<path style=" stroke:none;fill-rule:evenodd;fill:rgb(38.823529%,60.784314%,100%);fill-opacity:1;" d="M 14.285156 50 L 17.144531 50 L 17.144531 52.855469 L 14.285156 52.855469 Z M 14.285156 50 "/>
<path style=" stroke:none;fill-rule:evenodd;fill:rgb(0%,0%,0%);fill-opacity:1;" d="M 11.429688 50 L 14.285156 50 L 14.285156 52.855469 L 11.429688 52.855469 Z M 11.429688 50 "/>
<path style=" stroke:none;fill-rule:evenodd;fill:rgb(0%,0%,0%);fill-opacity:1;" d="M 77.144531 47.144531 L 80.003906 47.144531 L 80.003906 50 L 77.144531 50 Z M 77.144531 47.144531 "/>
<path style=" stroke:none;fill-rule:evenodd;fill:rgb(0%,0%,0%);fill-opacity:1;" d="M 71.429688 47.144531 L 74.285156 47.144531 L 74.285156 50 L 71.429688 50 Z M 71.429688 47.144531 "/>
<path style=" stroke:none;fill-rule:evenodd;fill:rgb(35.686275%,43.137255%,88.235294%);fill-opacity:1;" d="M 68.570312 47.144531 L 71.429688 47.144531 L 71.429688 50 L 68.570312 50 Z M 68.570312 47.144531 "/>
<path style=" stroke:none;fill-rule:evenodd;fill:rgb(0%,0%,0%);fill-opacity:1;" d="M 65.714844 47.144531 L 68.570312 47.144531 L 68.570312 50 L 65.714844 50 Z M 65.714844 47.144531 "/>
<path style=" stroke:none;fill-rule:evenodd;fill:rgb(35.686275%,43.137255%,88.235294%);fill-opacity:1;" d="M 62.855469 47.144531 L 65.714844 47.144531 L 65.714844 50 L 62.855469 50 Z M 62.855469 47.144531 "/>
<path style=" stroke:none;fill-rule:evenodd;fill:rgb(35.686275%,43.137255%,88.235294%);fill-opacity:1;" d="M 60 47.144531 L 62.855469 47.144531 L 62.855469 50 L 60 50 Z M 60 47.144531 "/>
<path style=" stroke:none;fill-rule:evenodd;fill:rgb(38.823529%,60.784314%,100%);fill-opacity:1;" d="M 57.144531 47.144531 L 60 47.144531 L 60 50 L 57.144531 50 Z M 57.144531 47.144531 "/>
<path style=" stroke:none;fill-rule:evenodd;fill:rgb(38.823529%,60.784314%,100%);fill-opacity:1;" d="M 54.285156 47.144531 L 57.144531 47.144531 L 57.144531 50 L 54.285156 50 Z M 54.285156 47.144531 "/>
<path style=" stroke:none;fill-rule:evenodd;fill:rgb(38.823529%,60.784314%,100%);fill-opacity:1;" d="M 51.429688 47.144531 L 54.289062 47.144531 L 54.289062 50 L 51.429688 50 Z M 51.429688 47.144531 "/>
<path style=" stroke:none;fill-rule:evenodd;fill:rgb(38.823529%,60.784314%,100%);fill-opacity:1;" d="M 48.570312 47.144531 L 51.429688 47.144531 L 51.429688 50 L 48.570312 50 Z M 48.570312 47.144531 "/>
<path style=" stroke:none;fill-rule:evenodd;fill:rgb(38.823529%,60.784314%,100%);fill-opacity:1;" d="M 45.714844 47.144531 L 48.570312 47.144531 L 48.570312 50 L 45.714844 50 Z M 45.714844 47.144531 "/>
<path style=" stroke:none;fill-rule:evenodd;fill:rgb(38.823529%,60.784314%,100%);fill-opacity:1;" d="M 42.855469 47.144531 L 45.714844 47.144531 L 45.714844 50 L 42.855469 50 Z M 42.855469 47.144531 "/>
<path style=" stroke:none;fill-rule:evenodd;fill:rgb(38.823529%,60.784314%,100%);fill-opacity:1;" d="M 40 47.144531 L 42.855469 47.144531 L 42.855469 50 L 40 50 Z M 40 47.144531 "/>
<path style=" stroke:none;fill-rule:evenodd;fill:rgb(38.823529%,60.784314%,100%);fill-opacity:1;" d="M 37.144531 47.144531 L 40 47.144531 L 40 50 L 37.144531 50 Z M 37.144531 47.144531 "/>
<path style=" stroke:none;fill-rule:evenodd;fill:rgb(38.823529%,60.784314%,100%);fill-opacity:1;" d="M 34.285156 47.144531 L 37.144531 47.144531 L 37.144531 50 L 34.285156 50 Z M 34.285156 47.144531 "/>
<path style=" stroke:none;fill-rule:evenodd;fill:rgb(38.823529%,60.784314%,100%);fill-opacity:1;" d="M 31.429688 47.144531 L 34.285156 47.144531 L 34.285156 50 L 31.429688 50 Z M 31.429688 47.144531 "/>
<path style=" stroke:none;fill-rule:evenodd;fill:rgb(38.823529%,60.784314%,100%);fill-opacity:1;" d="M 28.570312 47.144531 L 31.429688 47.144531 L 31.429688 50 L 28.570312 50 Z M 28.570312 47.144531 "/>
<path style=" stroke:none;fill-rule:evenodd;fill:rgb(38.823529%,60.784314%,100%);fill-opacity:1;" d="M 25.714844 47.144531 L 28.574219 47.144531 L 28.574219 50 L 25.714844 50 Z M 25.714844 47.144531 "/>
<path style=" stroke:none;fill-rule:evenodd;fill:rgb(38.823529%,60.784314%,100%);fill-opacity:1;" d="M 22.855469 47.144531 L 25.714844 47.144531 L 25.714844 50 L 22.855469 50 Z M 22.855469 47.144531 "/>
<path style=" stroke:none;fill-rule:evenodd;fill:rgb(38.823529%,60.784314%,100%);fill-opacity:1;" d="M 20 47.144531 L 22.855469 47.144531 L 22.855469 50 L 20 50 Z M 20 47.144531 "/>
<path style=" stroke:none;fill-rule:evenodd;fill:rgb(38.823529%,60.784314%,100%);fill-opacity:1;" d="M 17.144531 47.144531 L 20 47.144531 L 20 50 L 17.144531 50 Z M 17.144531 47.144531 "/>
<path style=" stroke:none;fill-rule:evenodd;fill:rgb(38.823529%,60.784314%,100%);fill-opacity:1;" d="M 14.285156 47.144531 L 17.144531 47.144531 L 17.144531 50 L 14.285156 50 Z M 14.285156 47.144531 "/>
<path style=" stroke:none;fill-rule:evenodd;fill:rgb(0%,0%,0%);fill-opacity:1;" d="M 11.429688 47.144531 L 14.285156 47.144531 L 14.285156 50 L 11.429688 50 Z M 11.429688 47.144531 "/>
<path style=" stroke:none;fill-rule:evenodd;fill:rgb(0%,0%,0%);fill-opacity:1;" d="M 5.714844 47.144531 L 8.570312 47.144531 L 8.570312 50 L 5.714844 50 Z M 5.714844 47.144531 "/>
<path style=" stroke:none;fill-rule:evenodd;fill:rgb(0%,0%,0%);fill-opacity:1;" d="M 0 47.144531 L 2.859375 47.144531 L 2.859375 50 L 0 50 Z M 0 47.144531 "/>
<path style=" stroke:none;fill-rule:evenodd;fill:rgb(0%,0%,0%);fill-opacity:1;" d="M 68.570312 44.285156 L 71.429688 44.285156 L 71.429688 47.144531 L 68.570312 47.144531 Z M 68.570312 44.285156 "/>
<path style=" stroke:none;fill-rule:evenodd;fill:rgb(35.686275%,43.137255%,88.235294%);fill-opacity:1;" d="M 65.714844 44.285156 L 68.570312 44.285156 L 68.570312 47.144531 L 65.714844 47.144531 Z M 65.714844 44.285156 "/>
<path style=" stroke:none;fill-rule:evenodd;fill:rgb(35.686275%,43.137255%,88.235294%);fill-opacity:1;" d="M 62.855469 44.285156 L 65.714844 44.285156 L 65.714844 47.144531 L 62.855469 47.144531 Z M 62.855469 44.285156 "/>
<path style=" stroke:none;fill-rule:evenodd;fill:rgb(100%,100%,100%);fill-opacity:1;" d="M 60 44.285156 L 62.855469 44.285156 L 62.855469 47.144531 L 60 47.144531 Z M 60 44.285156 "/>
<path style=" stroke:none;fill-rule:evenodd;fill:rgb(38.823529%,60.784314%,100%);fill-opacity:1;" d="M 57.144531 44.285156 L 60 44.285156 L 60 47.144531 L 57.144531 47.144531 Z M 57.144531 44.285156 "/>
<path style=" stroke:none;fill-rule:evenodd;fill:rgb(100%,100%,100%);fill-opacity:1;" d="M 54.285156 44.285156 L 57.144531 44.285156 L 57.144531 47.144531 L 54.285156 47.144531 Z M 54.285156 44.285156 "/>
<path style=" stroke:none;fill-rule:evenodd;fill:rgb(38.823529%,60.784314%,100%);fill-opacity:1;" d="M 51.429688 44.285156 L 54.289062 44.285156 L 54.289062 47.144531 L 51.429688 47.144531 Z M 51.429688 44.285156 "/>
<path style=" stroke:none;fill-rule:evenodd;fill:rgb(100%,100%,100%);fill-opacity:1;" d="M 48.570312 44.285156 L 51.429688 44.285156 L 51.429688 47.144531 L 48.570312 47.144531 Z M 48.570312 44.285156 "/>
<path style=" stroke:none;fill-rule:evenodd;fill:rgb(38.823529%,60.784314%,100%);fill-opacity:1;" d="M 45.714844 44.285156 L 48.570312 44.285156 L 48.570312 47.144531 L 45.714844 47.144531 Z M 45.714844 44.285156 "/>
<path style=" stroke:none;fill-rule:evenodd;fill:rgb(38.823529%,60.784314%,100%);fill-opacity:1;" d="M 42.855469 44.285156 L 45.714844 44.285156 L 45.714844 47.144531 L 42.855469 47.144531 Z M 42.855469 44.285156 "/>
<path style=" stroke:none;fill-rule:evenodd;fill:rgb(38.823529%,60.784314%,100%);fill-opacity:1;" d="M 40 44.285156 L 42.855469 44.285156 L 42.855469 47.144531 L 40 47.144531 Z M 40 44.285156 "/>
<path style=" stroke:none;fill-rule:evenodd;fill:rgb(100%,100%,100%);fill-opacity:1;" d="M 37.144531 44.285156 L 40 44.285156 L 40 47.144531 L 37.144531 47.144531 Z M 37.144531 44.285156 "/>
<path style=" stroke:none;fill-rule:evenodd;fill:rgb(38.823529%,60.784314%,100%);fill-opacity:1;" d="M 34.285156 44.285156 L 37.144531 44.285156 L 37.144531 47.144531 L 34.285156 47.144531 Z M 34.285156 44.285156 "/>
<path style=" stroke:none;fill-rule:evenodd;fill:rgb(100%,100%,100%);fill-opacity:1;" d="M 31.429688 44.285156 L 34.285156 44.285156 L 34.285156 47.144531 L 31.429688 47.144531 Z M 31.429688 44.285156 "/>
<path style=" stroke:none;fill-rule:evenodd;fill:rgb(100%,100%,100%);fill-opacity:1;" d="M 28.570312 44.285156 L 31.429688 44.285156 L 31.429688 47.144531 L 28.570312 47.144531 Z M 28.570312 44.285156 "/>
<path style=" stroke:none;fill-rule:evenodd;fill:rgb(38.823529%,60.784314%,100%);fill-opacity:1;" d="M 25.714844 44.285156 L 28.574219 44.285156 L 28.574219 47.144531 L 25.714844 47.144531 Z M 25.714844 44.285156 "/>
<path style=" stroke:none;fill-rule:evenodd;fill:rgb(38.823529%,60.784314%,100%);fill-opacity:1;" d="M 22.855469 44.285156 L 25.714844 44.285156 L 25.714844 47.144531 L 22.855469 47.144531 Z M 22.855469 44.285156 "/>
<path style=" stroke:none;fill-rule:evenodd;fill:rgb(100%,100%,100%);fill-opacity:1;" d="M 20 44.285156 L 22.855469 44.285156 L 22.855469 47.144531 L 20 47.144531 Z M 20 44.285156 "/>
<path style=" stroke:none;fill-rule:evenodd;fill:rgb(100%,100%,100%);fill-opacity:1;" d="M 17.144531 44.285156 L 20 44.285156 L 20 47.144531 L 17.144531 47.144531 Z M 17.144531 44.285156 "/>
<path style=" stroke:none;fill-rule:evenodd;fill:rgb(38.823529%,60.784314%,100%);fill-opacity:1;" d="M 14.285156 44.285156 L 17.144531 44.285156 L 17.144531 47.144531 L 14.285156 47.144531 Z M 14.285156 44.285156 "/>
<path style=" stroke:none;fill-rule:evenodd;fill:rgb(0%,0%,0%);fill-opacity:1;" d="M 11.429688 44.285156 L 14.285156 44.285156 L 14.285156 47.144531 L 11.429688 47.144531 Z M 11.429688 44.285156 "/>
<path style=" stroke:none;fill-rule:evenodd;fill:rgb(0%,0%,0%);fill-opacity:1;" d="M 68.570312 41.429688 L 71.429688 41.429688 L 71.429688 44.285156 L 68.570312 44.285156 Z M 68.570312 41.429688 "/>
<path style=" stroke:none;fill-rule:evenodd;fill:rgb(35.686275%,43.137255%,88.235294%);fill-opacity:1;" d="M 65.714844 41.429688 L 68.570312 41.429688 L 68.570312 44.285156 L 65.714844 44.285156 Z M 65.714844 41.429688 "/>
<path style=" stroke:none;fill-rule:evenodd;fill:rgb(35.686275%,43.137255%,88.235294%);fill-opacity:1;" d="M 62.855469 41.429688 L 65.714844 41.429688 L 65.714844 44.285156 L 62.855469 44.285156 Z M 62.855469 41.429688 "/>
<path style=" stroke:none;fill-rule:evenodd;fill:rgb(100%,100%,100%);fill-opacity:1;" d="M 60 41.429688 L 62.855469 41.429688 L 62.855469 44.285156 L 60 44.285156 Z M 60 41.429688 "/>
<path style=" stroke:none;fill-rule:evenodd;fill:rgb(38.823529%,60.784314%,100%);fill-opacity:1;" d="M 57.144531 41.429688 L 60 41.429688 L 60 44.285156 L 57.144531 44.285156 Z M 57.144531 41.429688 "/>
<path style=" stroke:none;fill-rule:evenodd;fill:rgb(100%,100%,100%);fill-opacity:1;" d="M 54.285156 41.429688 L 57.144531 41.429688 L 57.144531 44.285156 L 54.285156 44.285156 Z M 54.285156 41.429688 "/>
<path style=" stroke:none;fill-rule:evenodd;fill:rgb(38.823529%,60.784314%,100%);fill-opacity:1;" d="M 51.429688 41.429688 L 54.289062 41.429688 L 54.289062 44.285156 L 51.429688 44.285156 Z M 51.429688 41.429688 "/>
<path style=" stroke:none;fill-rule:evenodd;fill:rgb(38.823529%,60.784314%,100%);fill-opacity:1;" d="M 48.570312 41.429688 L 51.429688 41.429688 L 51.429688 44.285156 L 48.570312 44.285156 Z M 48.570312 41.429688 "/>
<path style=" stroke:none;fill-rule:evenodd;fill:rgb(100%,100%,100%);fill-opacity:1;" d="M 45.714844 41.429688 L 48.570312 41.429688 L 48.570312 44.285156 L 45.714844 44.285156 Z M 45.714844 41.429688 "/>
<path style=" stroke:none;fill-rule:evenodd;fill:rgb(38.823529%,60.784314%,100%);fill-opacity:1;" d="M 42.855469 41.429688 L 45.714844 41.429688 L 45.714844 44.285156 L 42.855469 44.285156 Z M 42.855469 41.429688 "/>
<path style=" stroke:none;fill-rule:evenodd;fill:rgb(100%,100%,100%);fill-opacity:1;" d="M 40 41.429688 L 42.855469 41.429688 L 42.855469 44.285156 L 40 44.285156 Z M 40 41.429688 "/>
<path style=" stroke:none;fill-rule:evenodd;fill:rgb(38.823529%,60.784314%,100%);fill-opacity:1;" d="M 37.144531 41.429688 L 40 41.429688 L 40 44.285156 L 37.144531 44.285156 Z M 37.144531 41.429688 "/>
<path style=" stroke:none;fill-rule:evenodd;fill:rgb(100%,100%,100%);fill-opacity:1;" d="M 34.285156 41.429688 L 37.144531 41.429688 L 37.144531 44.285156 L 34.285156 44.285156 Z M 34.285156 41.429688 "/>
<path style=" stroke:none;fill-rule:evenodd;fill:rgb(38.823529%,60.784314%,100%);fill-opacity:1;" d="M 31.429688 41.429688 L 34.285156 41.429688 L 34.285156 44.285156 L 31.429688 44.285156 Z M 31.429688 41.429688 "/>
<path style=" stroke:none;fill-rule:evenodd;fill:rgb(100%,100%,100%);fill-opacity:1;" d="M 28.570312 41.429688 L 31.429688 41.429688 L 31.429688 44.285156 L 28.570312 44.285156 Z M 28.570312 41.429688 "/>
<path style=" stroke:none;fill-rule:evenodd;fill:rgb(38.823529%,60.784314%,100%);fill-opacity:1;" d="M 25.714844 41.429688 L 28.574219 41.429688 L 28.574219 44.285156 L 25.714844 44.285156 Z M 25.714844 41.429688 "/>
<path style=" stroke:none;fill-rule:evenodd;fill:rgb(100%,100%,100%);fill-opacity:1;" d="M 22.855469 41.429688 L 25.714844 41.429688 L 25.714844 44.285156 L 22.855469 44.285156 Z M 22.855469 41.429688 "/>
<path style=" stroke:none;fill-rule:evenodd;fill:rgb(38.823529%,60.784314%,100%);fill-opacity:1;" d="M 20 41.429688 L 22.855469 41.429688 L 22.855469 44.285156 L 20 44.285156 Z M 20 41.429688 "/>
<path style=" stroke:none;fill-rule:evenodd;fill:rgb(100%,100%,100%);fill-opacity:1;" d="M 17.144531 41.429688 L 20 41.429688 L 20 44.285156 L 17.144531 44.285156 Z M 17.144531 41.429688 "/>
<path style=" stroke:none;fill-rule:evenodd;fill:rgb(38.823529%,60.784314%,100%);fill-opacity:1;" d="M 14.285156 41.429688 L 17.144531 41.429688 L 17.144531 44.285156 L 14.285156 44.285156 Z M 14.285156 41.429688 "/>
<path style=" stroke:none;fill-rule:evenodd;fill:rgb(0%,0%,0%);fill-opacity:1;" d="M 11.429688 41.429688 L 14.285156 41.429688 L 14.285156 44.285156 L 11.429688 44.285156 Z M 11.429688 41.429688 "/>
<path style=" stroke:none;fill-rule:evenodd;fill:rgb(0%,0%,0%);fill-opacity:1;" d="M 68.570312 38.570312 L 71.429688 38.570312 L 71.429688 41.429688 L 68.570312 41.429688 Z M 68.570312 38.570312 "/>
<path style=" stroke:none;fill-rule:evenodd;fill:rgb(35.686275%,43.137255%,88.235294%);fill-opacity:1;" d="M 65.714844 38.570312 L 68.570312 38.570312 L 68.570312 41.429688 L 65.714844 41.429688 Z M 65.714844 38.570312 "/>
<path style=" stroke:none;fill-rule:evenodd;fill:rgb(35.686275%,43.137255%,88.235294%);fill-opacity:1;" d="M 62.855469 38.570312 L 65.714844 38.570312 L 65.714844 41.429688 L 62.855469 41.429688 Z M 62.855469 38.570312 "/>
<path style=" stroke:none;fill-rule:evenodd;fill:rgb(35.686275%,43.137255%,88.235294%);fill-opacity:1;" d="M 60 38.570312 L 62.855469 38.570312 L 62.855469 41.429688 L 60 41.429688 Z M 60 38.570312 "/>
<path style=" stroke:none;fill-rule:evenodd;fill:rgb(100%,100%,100%);fill-opacity:1;" d="M 57.144531 38.570312 L 60 38.570312 L 60 41.429688 L 57.144531 41.429688 Z M 57.144531 38.570312 "/>
<path style=" stroke:none;fill-rule:evenodd;fill:rgb(100%,100%,100%);fill-opacity:1;" d="M 54.285156 38.570312 L 57.144531 38.570312 L 57.144531 41.429688 L 54.285156 41.429688 Z M 54.285156 38.570312 "/>
<path style=" stroke:none;fill-rule:evenodd;fill:rgb(38.823529%,60.784314%,100%);fill-opacity:1;" d="M 51.429688 38.570312 L 54.289062 38.570312 L 54.289062 41.429688 L 51.429688 41.429688 Z M 51.429688 38.570312 "/>
<path style=" stroke:none;fill-rule:evenodd;fill:rgb(38.823529%,60.784314%,100%);fill-opacity:1;" d="M 48.570312 38.570312 L 51.429688 38.570312 L 51.429688 41.429688 L 48.570312 41.429688 Z M 48.570312 38.570312 "/>
<path style=" stroke:none;fill-rule:evenodd;fill:rgb(100%,100%,100%);fill-opacity:1;" d="M 45.714844 38.570312 L 48.570312 38.570312 L 48.570312 41.429688 L 45.714844 41.429688 Z M 45.714844 38.570312 "/>
<path style=" stroke:none;fill-rule:evenodd;fill:rgb(38.823529%,60.784314%,100%);fill-opacity:1;" d="M 42.855469 38.570312 L 45.714844 38.570312 L 45.714844 41.429688 L 42.855469 41.429688 Z M 42.855469 38.570312 "/>
<path style=" stroke:none;fill-rule:evenodd;fill:rgb(100%,100%,100%);fill-opacity:1;" d="M 40 38.570312 L 42.855469 38.570312 L 42.855469 41.429688 L 40 41.429688 Z M 40 38.570312 "/>
<path style=" stroke:none;fill-rule:evenodd;fill:rgb(38.823529%,60.784314%,100%);fill-opacity:1;" d="M 37.144531 38.570312 L 40 38.570312 L 40 41.429688 L 37.144531 41.429688 Z M 37.144531 38.570312 "/>
<path style=" stroke:none;fill-rule:evenodd;fill:rgb(100%,100%,100%);fill-opacity:1;" d="M 34.285156 38.570312 L 37.144531 38.570312 L 37.144531 41.429688 L 34.285156 41.429688 Z M 34.285156 38.570312 "/>
<path style=" stroke:none;fill-rule:evenodd;fill:rgb(38.823529%,60.784314%,100%);fill-opacity:1;" d="M 31.429688 38.570312 L 34.285156 38.570312 L 34.285156 41.429688 L 31.429688 41.429688 Z M 31.429688 38.570312 "/>
<path style=" stroke:none;fill-rule:evenodd;fill:rgb(100%,100%,100%);fill-opacity:1;" d="M 28.570312 38.570312 L 31.429688 38.570312 L 31.429688 41.429688 L 28.570312 41.429688 Z M 28.570312 38.570312 "/>
<path style=" stroke:none;fill-rule:evenodd;fill:rgb(38.823529%,60.784314%,100%);fill-opacity:1;" d="M 25.714844 38.570312 L 28.574219 38.570312 L 28.574219 41.429688 L 25.714844 41.429688 Z M 25.714844 38.570312 "/>
<path style=" stroke:none;fill-rule:evenodd;fill:rgb(38.823529%,60.784314%,100%);fill-opacity:1;" d="M 22.855469 38.570312 L 25.714844 38.570312 L 25.714844 41.429688 L 22.855469 41.429688 Z M 22.855469 38.570312 "/>
<path style=" stroke:none;fill-rule:evenodd;fill:rgb(100%,100%,100%);fill-opacity:1;" d="M 20 38.570312 L 22.855469 38.570312 L 22.855469 41.429688 L 20 41.429688 Z M 20 38.570312 "/>
<path style=" stroke:none;fill-rule:evenodd;fill:rgb(100%,100%,100%);fill-opacity:1;" d="M 17.144531 38.570312 L 20 38.570312 L 20 41.429688 L 17.144531 41.429688 Z M 17.144531 38.570312 "/>
<path style=" stroke:none;fill-rule:evenodd;fill:rgb(38.823529%,60.784314%,100%);fill-opacity:1;" d="M 14.285156 38.570312 L 17.144531 38.570312 L 17.144531 41.429688 L 14.285156 41.429688 Z M 14.285156 38.570312 "/>
<path style=" stroke:none;fill-rule:evenodd;fill:rgb(0%,0%,0%);fill-opacity:1;" d="M 11.429688 38.570312 L 14.285156 38.570312 L 14.285156 41.429688 L 11.429688 41.429688 Z M 11.429688 38.570312 "/>
<path style=" stroke:none;fill-rule:evenodd;fill:rgb(0%,0%,0%);fill-opacity:1;" d="M 68.570312 35.710938 L 71.429688 35.710938 L 71.429688 38.570312 L 68.570312 38.570312 Z M 68.570312 35.710938 "/>
<path style=" stroke:none;fill-rule:evenodd;fill:rgb(35.686275%,43.137255%,88.235294%);fill-opacity:1;" d="M 65.714844 35.710938 L 68.570312 35.710938 L 68.570312 38.570312 L 65.714844 38.570312 Z M 65.714844 35.710938 "/>
<path style=" stroke:none;fill-rule:evenodd;fill:rgb(35.686275%,43.137255%,88.235294%);fill-opacity:1;" d="M 62.855469 35.710938 L 65.714844 35.710938 L 65.714844 38.570312 L 62.855469 38.570312 Z M 62.855469 35.710938 "/>
<path style=" stroke:none;fill-rule:evenodd;fill:rgb(100%,100%,100%);fill-opacity:1;" d="M 60 35.710938 L 62.855469 35.710938 L 62.855469 38.570312 L 60 38.570312 Z M 60 35.710938 "/>
<path style=" stroke:none;fill-rule:evenodd;fill:rgb(38.823529%,60.784314%,100%);fill-opacity:1;" d="M 57.144531 35.710938 L 60 35.710938 L 60 38.570312 L 57.144531 38.570312 Z M 57.144531 35.710938 "/>
<path style=" stroke:none;fill-rule:evenodd;fill:rgb(100%,100%,100%);fill-opacity:1;" d="M 54.285156 35.710938 L 57.144531 35.710938 L 57.144531 38.570312 L 54.285156 38.570312 Z M 54.285156 35.710938 "/>
<path style=" stroke:none;fill-rule:evenodd;fill:rgb(38.823529%,60.784314%,100%);fill-opacity:1;" d="M 51.429688 35.710938 L 54.289062 35.710938 L 54.289062 38.570312 L 51.429688 38.570312 Z M 51.429688 35.710938 "/>
<path style=" stroke:none;fill-rule:evenodd;fill:rgb(38.823529%,60.784314%,100%);fill-opacity:1;" d="M 48.570312 35.710938 L 51.429688 35.710938 L 51.429688 38.570312 L 48.570312 38.570312 Z M 48.570312 35.710938 "/>
<path style=" stroke:none;fill-rule:evenodd;fill:rgb(100%,100%,100%);fill-opacity:1;" d="M 45.714844 35.710938 L 48.570312 35.710938 L 48.570312 38.570312 L 45.714844 38.570312 Z M 45.714844 35.710938 "/>
<path style=" stroke:none;fill-rule:evenodd;fill:rgb(38.823529%,60.784314%,100%);fill-opacity:1;" d="M 42.855469 35.710938 L 45.714844 35.710938 L 45.714844 38.570312 L 42.855469 38.570312 Z M 42.855469 35.710938 "/>
<path style=" stroke:none;fill-rule:evenodd;fill:rgb(100%,100%,100%);fill-opacity:1;" d="M 40 35.710938 L 42.855469 35.710938 L 42.855469 38.570312 L 40 38.570312 Z M 40 35.710938 "/>
<path style=" stroke:none;fill-rule:evenodd;fill:rgb(38.823529%,60.784314%,100%);fill-opacity:1;" d="M 37.144531 35.710938 L 40 35.710938 L 40 38.570312 L 37.144531 38.570312 Z M 37.144531 35.710938 "/>
<path style=" stroke:none;fill-rule:evenodd;fill:rgb(100%,100%,100%);fill-opacity:1;" d="M 34.285156 35.710938 L 37.144531 35.710938 L 37.144531 38.570312 L 34.285156 38.570312 Z M 34.285156 35.710938 "/>
<path style=" stroke:none;fill-rule:evenodd;fill:rgb(38.823529%,60.784314%,100%);fill-opacity:1;" d="M 31.429688 35.710938 L 34.285156 35.710938 L 34.285156 38.570312 L 31.429688 38.570312 Z M 31.429688 35.710938 "/>
<path style=" stroke:none;fill-rule:evenodd;fill:rgb(100%,100%,100%);fill-opacity:1;" d="M 28.570312 35.710938 L 31.429688 35.710938 L 31.429688 38.570312 L 28.570312 38.570312 Z M 28.570312 35.710938 "/>
<path style=" stroke:none;fill-rule:evenodd;fill:rgb(38.823529%,60.784314%,100%);fill-opacity:1;" d="M 25.714844 35.710938 L 28.574219 35.710938 L 28.574219 38.570312 L 25.714844 38.570312 Z M 25.714844 35.710938 "/>
<path style=" stroke:none;fill-rule:evenodd;fill:rgb(100%,100%,100%);fill-opacity:1;" d="M 22.855469 35.710938 L 25.714844 35.710938 L 25.714844 38.570312 L 22.855469 38.570312 Z M 22.855469 35.710938 "/>
<path style=" stroke:none;fill-rule:evenodd;fill:rgb(38.823529%,60.784314%,100%);fill-opacity:1;" d="M 20 35.710938 L 22.855469 35.710938 L 22.855469 38.570312 L 20 38.570312 Z M 20 35.710938 "/>
<path style=" stroke:none;fill-rule:evenodd;fill:rgb(100%,100%,100%);fill-opacity:1;" d="M 17.144531 35.710938 L 20 35.710938 L 20 38.570312 L 17.144531 38.570312 Z M 17.144531 35.710938 "/>
<path style=" stroke:none;fill-rule:evenodd;fill:rgb(38.823529%,60.784314%,100%);fill-opacity:1;" d="M 14.285156 35.710938 L 17.144531 35.710938 L 17.144531 38.570312 L 14.285156 38.570312 Z M 14.285156 35.710938 "/>
<path style=" stroke:none;fill-rule:evenodd;fill:rgb(0%,0%,0%);fill-opacity:1;" d="M 11.429688 35.710938 L 14.285156 35.710938 L 14.285156 38.570312 L 11.429688 38.570312 Z M 11.429688 35.710938 "/>
<path style=" stroke:none;fill-rule:evenodd;fill:rgb(0%,0%,0%);fill-opacity:1;" d="M 68.570312 32.855469 L 71.429688 32.855469 L 71.429688 35.714844 L 68.570312 35.714844 Z M 68.570312 32.855469 "/>
<path style=" stroke:none;fill-rule:evenodd;fill:rgb(35.686275%,43.137255%,88.235294%);fill-opacity:1;" d="M 65.714844 32.855469 L 68.570312 32.855469 L 68.570312 35.714844 L 65.714844 35.714844 Z M 65.714844 32.855469 "/>
<path style=" stroke:none;fill-rule:evenodd;fill:rgb(35.686275%,43.137255%,88.235294%);fill-opacity:1;" d="M 62.855469 32.855469 L 65.714844 32.855469 L 65.714844 35.714844 L 62.855469 35.714844 Z M 62.855469 32.855469 "/>
<path style=" stroke:none;fill-rule:evenodd;fill:rgb(100%,100%,100%);fill-opacity:1;" d="M 60 32.855469 L 62.855469 32.855469 L 62.855469 35.714844 L 60 35.714844 Z M 60 32.855469 "/>
<path style=" stroke:none;fill-rule:evenodd;fill:rgb(38.823529%,60.784314%,100%);fill-opacity:1;" d="M 57.144531 32.855469 L 60 32.855469 L 60 35.714844 L 57.144531 35.714844 Z M 57.144531 32.855469 "/>
<path style=" stroke:none;fill-rule:evenodd;fill:rgb(100%,100%,100%);fill-opacity:1;" d="M 54.285156 32.855469 L 57.144531 32.855469 L 57.144531 35.714844 L 54.285156 35.714844 Z M 54.285156 32.855469 "/>
<path style=" stroke:none;fill-rule:evenodd;fill:rgb(38.823529%,60.784314%,100%);fill-opacity:1;" d="M 51.429688 32.855469 L 54.289062 32.855469 L 54.289062 35.714844 L 51.429688 35.714844 Z M 51.429688 32.855469 "/>
<path style=" stroke:none;fill-rule:evenodd;fill:rgb(100%,100%,100%);fill-opacity:1;" d="M 48.570312 32.855469 L 51.429688 32.855469 L 51.429688 35.714844 L 48.570312 35.714844 Z M 48.570312 32.855469 "/>
<path style=" stroke:none;fill-rule:evenodd;fill:rgb(38.823529%,60.784314%,100%);fill-opacity:1;" d="M 45.714844 32.855469 L 48.570312 32.855469 L 48.570312 35.714844 L 45.714844 35.714844 Z M 45.714844 32.855469 "/>
<path style=" stroke:none;fill-rule:evenodd;fill:rgb(38.823529%,60.784314%,100%);fill-opacity:1;" d="M 42.855469 32.855469 L 45.714844 32.855469 L 45.714844 35.714844 L 42.855469 35.714844 Z M 42.855469 32.855469 "/>
<path style=" stroke:none;fill-rule:evenodd;fill:rgb(38.823529%,60.784314%,100%);fill-opacity:1;" d="M 40 32.855469 L 42.855469 32.855469 L 42.855469 35.714844 L 40 35.714844 Z M 40 32.855469 "/>
<path style=" stroke:none;fill-rule:evenodd;fill:rgb(100%,100%,100%);fill-opacity:1;" d="M 37.144531 32.855469 L 40 32.855469 L 40 35.714844 L 37.144531 35.714844 Z M 37.144531 32.855469 "/>
<path style=" stroke:none;fill-rule:evenodd;fill:rgb(38.823529%,60.784314%,100%);fill-opacity:1;" d="M 34.285156 32.855469 L 37.144531 32.855469 L 37.144531 35.714844 L 34.285156 35.714844 Z M 34.285156 32.855469 "/>
<path style=" stroke:none;fill-rule:evenodd;fill:rgb(38.823529%,60.784314%,100%);fill-opacity:1;" d="M 31.429688 32.855469 L 34.285156 32.855469 L 34.285156 35.714844 L 31.429688 35.714844 Z M 31.429688 32.855469 "/>
<path style=" stroke:none;fill-rule:evenodd;fill:rgb(100%,100%,100%);fill-opacity:1;" d="M 28.570312 32.855469 L 31.429688 32.855469 L 31.429688 35.714844 L 28.570312 35.714844 Z M 28.570312 32.855469 "/>
<path style=" stroke:none;fill-rule:evenodd;fill:rgb(38.823529%,60.784314%,100%);fill-opacity:1;" d="M 25.714844 32.855469 L 28.574219 32.855469 L 28.574219 35.714844 L 25.714844 35.714844 Z M 25.714844 32.855469 "/>
<path style=" stroke:none;fill-rule:evenodd;fill:rgb(38.823529%,60.784314%,100%);fill-opacity:1;" d="M 22.855469 32.855469 L 25.714844 32.855469 L 25.714844 35.714844 L 22.855469 35.714844 Z M 22.855469 32.855469 "/>
<path style=" stroke:none;fill-rule:evenodd;fill:rgb(100%,100%,100%);fill-opacity:1;" d="M 20 32.855469 L 22.855469 32.855469 L 22.855469 35.714844 L 20 35.714844 Z M 20 32.855469 "/>
<path style=" stroke:none;fill-rule:evenodd;fill:rgb(100%,100%,100%);fill-opacity:1;" d="M 17.144531 32.855469 L 20 32.855469 L 20 35.714844 L 17.144531 35.714844 Z M 17.144531 32.855469 "/>
<path style=" stroke:none;fill-rule:evenodd;fill:rgb(38.823529%,60.784314%,100%);fill-opacity:1;" d="M 14.285156 32.855469 L 17.144531 32.855469 L 17.144531 35.714844 L 14.285156 35.714844 Z M 14.285156 32.855469 "/>
<path style=" stroke:none;fill-rule:evenodd;fill:rgb(0%,0%,0%);fill-opacity:1;" d="M 11.429688 32.855469 L 14.285156 32.855469 L 14.285156 35.714844 L 11.429688 35.714844 Z M 11.429688 32.855469 "/>
<path style=" stroke:none;fill-rule:evenodd;fill:rgb(0%,0%,0%);fill-opacity:1;" d="M 68.570312 30 L 71.429688 30 L 71.429688 32.855469 L 68.570312 32.855469 Z M 68.570312 30 "/>
<path style=" stroke:none;fill-rule:evenodd;fill:rgb(35.686275%,43.137255%,88.235294%);fill-opacity:1;" d="M 65.714844 30 L 68.570312 30 L 68.570312 32.855469 L 65.714844 32.855469 Z M 65.714844 30 "/>
<path style=" stroke:none;fill-rule:evenodd;fill:rgb(35.686275%,43.137255%,88.235294%);fill-opacity:1;" d="M 62.855469 30 L 65.714844 30 L 65.714844 32.855469 L 62.855469 32.855469 Z M 62.855469 30 "/>
<path style=" stroke:none;fill-rule:evenodd;fill:rgb(35.686275%,43.137255%,88.235294%);fill-opacity:1;" d="M 60 30 L 62.855469 30 L 62.855469 32.855469 L 60 32.855469 Z M 60 30 "/>
<path style=" stroke:none;fill-rule:evenodd;fill:rgb(38.823529%,60.784314%,100%);fill-opacity:1;" d="M 57.144531 30 L 60 30 L 60 32.855469 L 57.144531 32.855469 Z M 57.144531 30 "/>
<path style=" stroke:none;fill-rule:evenodd;fill:rgb(38.823529%,60.784314%,100%);fill-opacity:1;" d="M 54.285156 30 L 57.144531 30 L 57.144531 32.855469 L 54.285156 32.855469 Z M 54.285156 30 "/>
<path style=" stroke:none;fill-rule:evenodd;fill:rgb(38.823529%,60.784314%,100%);fill-opacity:1;" d="M 51.429688 30 L 54.289062 30 L 54.289062 32.855469 L 51.429688 32.855469 Z M 51.429688 30 "/>
<path style=" stroke:none;fill-rule:evenodd;fill:rgb(38.823529%,60.784314%,100%);fill-opacity:1;" d="M 48.570312 30 L 51.429688 30 L 51.429688 32.855469 L 48.570312 32.855469 Z M 48.570312 30 "/>
<path style=" stroke:none;fill-rule:evenodd;fill:rgb(38.823529%,60.784314%,100%);fill-opacity:1;" d="M 45.714844 30 L 48.570312 30 L 48.570312 32.855469 L 45.714844 32.855469 Z M 45.714844 30 "/>
<path style=" stroke:none;fill-rule:evenodd;fill:rgb(38.823529%,60.784314%,100%);fill-opacity:1;" d="M 42.855469 30 L 45.714844 30 L 45.714844 32.855469 L 42.855469 32.855469 Z M 42.855469 30 "/>
<path style=" stroke:none;fill-rule:evenodd;fill:rgb(38.823529%,60.784314%,100%);fill-opacity:1;" d="M 40 30 L 42.855469 30 L 42.855469 32.855469 L 40 32.855469 Z M 40 30 "/>
<path style=" stroke:none;fill-rule:evenodd;fill:rgb(38.823529%,60.784314%,100%);fill-opacity:1;" d="M 37.144531 30 L 40 30 L 40 32.855469 L 37.144531 32.855469 Z M 37.144531 30 "/>
<path style=" stroke:none;fill-rule:evenodd;fill:rgb(38.823529%,60.784314%,100%);fill-opacity:1;" d="M 34.285156 30 L 37.144531 30 L 37.144531 32.855469 L 34.285156 32.855469 Z M 34.285156 30 "/>
<path style=" stroke:none;fill-rule:evenodd;fill:rgb(38.823529%,60.784314%,100%);fill-opacity:1;" d="M 31.429688 30 L 34.285156 30 L 34.285156 32.855469 L 31.429688 32.855469 Z M 31.429688 30 "/>
<path style=" stroke:none;fill-rule:evenodd;fill:rgb(38.823529%,60.784314%,100%);fill-opacity:1;" d="M 28.570312 30 L 31.429688 30 L 31.429688 32.855469 L 28.570312 32.855469 Z M 28.570312 30 "/>
<path style=" stroke:none;fill-rule:evenodd;fill:rgb(38.823529%,60.784314%,100%);fill-opacity:1;" d="M 25.714844 30 L 28.574219 30 L 28.574219 32.855469 L 25.714844 32.855469 Z M 25.714844 30 "/>
<path style=" stroke:none;fill-rule:evenodd;fill:rgb(38.823529%,60.784314%,100%);fill-opacity:1;" d="M 22.855469 30 L 25.714844 30 L 25.714844 32.855469 L 22.855469 32.855469 Z M 22.855469 30 "/>
<path style=" stroke:none;fill-rule:evenodd;fill:rgb(38.823529%,60.784314%,100%);fill-opacity:1;" d="M 20 30 L 22.855469 30 L 22.855469 32.855469 L 20 32.855469 Z M 20 30 "/>
<path style=" stroke:none;fill-rule:evenodd;fill:rgb(38.823529%,60.784314%,100%);fill-opacity:1;" d="M 17.144531 30 L 20 30 L 20 32.855469 L 17.144531 32.855469 Z M 17.144531 30 "/>
<path style=" stroke:none;fill-rule:evenodd;fill:rgb(38.823529%,60.784314%,100%);fill-opacity:1;" d="M 14.285156 30 L 17.144531 30 L 17.144531 32.855469 L 14.285156 32.855469 Z M 14.285156 30 "/>
<path style=" stroke:none;fill-rule:evenodd;fill:rgb(0%,0%,0%);fill-opacity:1;" d="M 11.429688 30 L 14.285156 30 L 14.285156 32.855469 L 11.429688 32.855469 Z M 11.429688 30 "/>
<path style=" stroke:none;fill-rule:evenodd;fill:rgb(0%,0%,0%);fill-opacity:1;" d="M 68.570312 27.144531 L 71.429688 27.144531 L 71.429688 30 L 68.570312 30 Z M 68.570312 27.144531 "/>
<path style=" stroke:none;fill-rule:evenodd;fill:rgb(35.686275%,43.137255%,88.235294%);fill-opacity:1;" d="M 65.714844 27.144531 L 68.570312 27.144531 L 68.570312 30 L 65.714844 30 Z M 65.714844 27.144531 "/>
<path style=" stroke:none;fill-rule:evenodd;fill:rgb(35.686275%,43.137255%,88.235294%);fill-opacity:1;" d="M 62.855469 27.144531 L 65.714844 27.144531 L 65.714844 30 L 62.855469 30 Z M 62.855469 27.144531 "/>
<path style=" stroke:none;fill-rule:evenodd;fill:rgb(35.686275%,43.137255%,88.235294%);fill-opacity:1;" d="M 60 27.144531 L 62.855469 27.144531 L 62.855469 30 L 60 30 Z M 60 27.144531 "/>
<path style=" stroke:none;fill-rule:evenodd;fill:rgb(35.686275%,43.137255%,88.235294%);fill-opacity:1;" d="M 57.144531 27.144531 L 60 27.144531 L 60 30 L 57.144531 30 Z M 57.144531 27.144531 "/>
<path style=" stroke:none;fill-rule:evenodd;fill:rgb(38.823529%,60.784314%,100%);fill-opacity:1;" d="M 54.285156 27.144531 L 57.144531 27.144531 L 57.144531 30 L 54.285156 30 Z M 54.285156 27.144531 "/>
<path style=" stroke:none;fill-rule:evenodd;fill:rgb(38.823529%,60.784314%,100%);fill-opacity:1;" d="M 51.429688 27.144531 L 54.289062 27.144531 L 54.289062 30 L 51.429688 30 Z M 51.429688 27.144531 "/>
<path style=" stroke:none;fill-rule:evenodd;fill:rgb(38.823529%,60.784314%,100%);fill-opacity:1;" d="M 48.570312 27.144531 L 51.429688 27.144531 L 51.429688 30 L 48.570312 30 Z M 48.570312 27.144531 "/>
<path style=" stroke:none;fill-rule:evenodd;fill:rgb(38.823529%,60.784314%,100%);fill-opacity:1;" d="M 45.714844 27.144531 L 48.570312 27.144531 L 48.570312 30 L 45.714844 30 Z M 45.714844 27.144531 "/>
<path style=" stroke:none;fill-rule:evenodd;fill:rgb(38.823529%,60.784314%,100%);fill-opacity:1;" d="M 42.855469 27.144531 L 45.714844 27.144531 L 45.714844 30 L 42.855469 30 Z M 42.855469 27.144531 "/>
<path style=" stroke:none;fill-rule:evenodd;fill:rgb(38.823529%,60.784314%,100%);fill-opacity:1;" d="M 40 27.144531 L 42.855469 27.144531 L 42.855469 30 L 40 30 Z M 40 27.144531 "/>
<path style=" stroke:none;fill-rule:evenodd;fill:rgb(38.823529%,60.784314%,100%);fill-opacity:1;" d="M 37.144531 27.144531 L 40 27.144531 L 40 30 L 37.144531 30 Z M 37.144531 27.144531 "/>
<path style=" stroke:none;fill-rule:evenodd;fill:rgb(38.823529%,60.784314%,100%);fill-opacity:1;" d="M 34.285156 27.144531 L 37.144531 27.144531 L 37.144531 30 L 34.285156 30 Z M 34.285156 27.144531 "/>
<path style=" stroke:none;fill-rule:evenodd;fill:rgb(38.823529%,60.784314%,100%);fill-opacity:1;" d="M 31.429688 27.144531 L 34.285156 27.144531 L 34.285156 30 L 31.429688 30 Z M 31.429688 27.144531 "/>
<path style=" stroke:none;fill-rule:evenodd;fill:rgb(38.823529%,60.784314%,100%);fill-opacity:1;" d="M 28.570312 27.144531 L 31.429688 27.144531 L 31.429688 30 L 28.570312 30 Z M 28.570312 27.144531 "/>
<path style=" stroke:none;fill-rule:evenodd;fill:rgb(38.823529%,60.784314%,100%);fill-opacity:1;" d="M 25.714844 27.144531 L 28.574219 27.144531 L 28.574219 30 L 25.714844 30 Z M 25.714844 27.144531 "/>
<path style=" stroke:none;fill-rule:evenodd;fill:rgb(38.823529%,60.784314%,100%);fill-opacity:1;" d="M 22.855469 27.144531 L 25.714844 27.144531 L 25.714844 30 L 22.855469 30 Z M 22.855469 27.144531 "/>
<path style=" stroke:none;fill-rule:evenodd;fill:rgb(38.823529%,60.784314%,100%);fill-opacity:1;" d="M 20 27.144531 L 22.855469 27.144531 L 22.855469 30 L 20 30 Z M 20 27.144531 "/>
<path style=" stroke:none;fill-rule:evenodd;fill:rgb(38.823529%,60.784314%,100%);fill-opacity:1;" d="M 17.144531 27.144531 L 20 27.144531 L 20 30 L 17.144531 30 Z M 17.144531 27.144531 "/>
<path style=" stroke:none;fill-rule:evenodd;fill:rgb(35.686275%,43.137255%,88.235294%);fill-opacity:1;" d="M 14.285156 27.144531 L 17.144531 27.144531 L 17.144531 30 L 14.285156 30 Z M 14.285156 27.144531 "/>
<path style=" stroke:none;fill-rule:evenodd;fill:rgb(0%,0%,0%);fill-opacity:1;" d="M 11.429688 27.144531 L 14.285156 27.144531 L 14.285156 30 L 11.429688 30 Z M 11.429688 27.144531 "/>
<path style=" stroke:none;fill-rule:evenodd;fill:rgb(0%,0%,0%);fill-opacity:1;" d="M 68.570312 24.285156 L 71.429688 24.285156 L 71.429688 27.144531 L 68.570312 27.144531 Z M 68.570312 24.285156 "/>
<path style=" stroke:none;fill-rule:evenodd;fill:rgb(35.686275%,43.137255%,88.235294%);fill-opacity:1;" d="M 65.714844 24.285156 L 68.570312 24.285156 L 68.570312 27.144531 L 65.714844 27.144531 Z M 65.714844 24.285156 "/>
<path style=" stroke:none;fill-rule:evenodd;fill:rgb(35.686275%,43.137255%,88.235294%);fill-opacity:1;" d="M 62.855469 24.285156 L 65.714844 24.285156 L 65.714844 27.144531 L 62.855469 27.144531 Z M 62.855469 24.285156 "/>
<path style=" stroke:none;fill-rule:evenodd;fill:rgb(35.686275%,43.137255%,88.235294%);fill-opacity:1;" d="M 60 24.285156 L 62.855469 24.285156 L 62.855469 27.144531 L 60 27.144531 Z M 60 24.285156 "/>
<path style=" stroke:none;fill-rule:evenodd;fill:rgb(0%,0%,0%);fill-opacity:1;" d="M 57.144531 24.285156 L 60 24.285156 L 60 27.144531 L 57.144531 27.144531 Z M 57.144531 24.285156 "/>
<path style=" stroke:none;fill-rule:evenodd;fill:rgb(0%,0%,0%);fill-opacity:1;" d="M 54.285156 24.285156 L 57.144531 24.285156 L 57.144531 27.144531 L 54.285156 27.144531 Z M 54.285156 24.285156 "/>
<path style=" stroke:none;fill-rule:evenodd;fill:rgb(35.686275%,43.137255%,88.235294%);fill-opacity:1;" d="M 51.429688 24.285156 L 54.289062 24.285156 L 54.289062 27.144531 L 51.429688 27.144531 Z M 51.429688 24.285156 "/>
<path style=" stroke:none;fill-rule:evenodd;fill:rgb(35.686275%,43.137255%,88.235294%);fill-opacity:1;" d="M 48.570312 24.285156 L 51.429688 24.285156 L 51.429688 27.144531 L 48.570312 27.144531 Z M 48.570312 24.285156 "/>
<path style=" stroke:none;fill-rule:evenodd;fill:rgb(35.686275%,43.137255%,88.235294%);fill-opacity:1;" d="M 45.714844 24.285156 L 48.570312 24.285156 L 48.570312 27.144531 L 45.714844 27.144531 Z M 45.714844 24.285156 "/>
<path style=" stroke:none;fill-rule:evenodd;fill:rgb(0%,0%,0%);fill-opacity:1;" d="M 42.855469 24.285156 L 45.714844 24.285156 L 45.714844 27.144531 L 42.855469 27.144531 Z M 42.855469 24.285156 "/>
<path style=" stroke:none;fill-rule:evenodd;fill:rgb(35.686275%,43.137255%,88.235294%);fill-opacity:1;" d="M 40 24.285156 L 42.855469 24.285156 L 42.855469 27.144531 L 40 27.144531 Z M 40 24.285156 "/>
<path style=" stroke:none;fill-rule:evenodd;fill:rgb(0%,0%,0%);fill-opacity:1;" d="M 37.144531 24.285156 L 40 24.285156 L 40 27.144531 L 37.144531 27.144531 Z M 37.144531 24.285156 "/>
<path style=" stroke:none;fill-rule:evenodd;fill:rgb(0%,0%,0%);fill-opacity:1;" d="M 34.285156 24.285156 L 37.144531 24.285156 L 37.144531 27.144531 L 34.285156 27.144531 Z M 34.285156 24.285156 "/>
<path style=" stroke:none;fill-rule:evenodd;fill:rgb(0%,0%,0%);fill-opacity:1;" d="M 31.429688 24.285156 L 34.285156 24.285156 L 34.285156 27.144531 L 31.429688 27.144531 Z M 31.429688 24.285156 "/>
<path style=" stroke:none;fill-rule:evenodd;fill:rgb(0%,0%,0%);fill-opacity:1;" d="M 28.570312 24.285156 L 31.429688 24.285156 L 31.429688 27.144531 L 28.570312 27.144531 Z M 28.570312 24.285156 "/>
<path style=" stroke:none;fill-rule:evenodd;fill:rgb(0%,0%,0%);fill-opacity:1;" d="M 25.714844 24.285156 L 28.574219 24.285156 L 28.574219 27.144531 L 25.714844 27.144531 Z M 25.714844 24.285156 "/>
<path style=" stroke:none;fill-rule:evenodd;fill:rgb(0%,0%,0%);fill-opacity:1;" d="M 22.855469 24.285156 L 25.714844 24.285156 L 25.714844 27.144531 L 22.855469 27.144531 Z M 22.855469 24.285156 "/>
<path style=" stroke:none;fill-rule:evenodd;fill:rgb(0%,0%,0%);fill-opacity:1;" d="M 20 24.285156 L 22.855469 24.285156 L 22.855469 27.144531 L 20 27.144531 Z M 20 24.285156 "/>
<path style=" stroke:none;fill-rule:evenodd;fill:rgb(0%,0%,0%);fill-opacity:1;" d="M 17.144531 24.285156 L 20 24.285156 L 20 27.144531 L 17.144531 27.144531 Z M 17.144531 24.285156 "/>
<path style=" stroke:none;fill-rule:evenodd;fill:rgb(0%,0%,0%);fill-opacity:1;" d="M 14.285156 24.285156 L 17.144531 24.285156 L 17.144531 27.144531 L 14.285156 27.144531 Z M 14.285156 24.285156 "/>
<path style=" stroke:none;fill-rule:evenodd;fill:rgb(0%,0%,0%);fill-opacity:1;" d="M 68.570312 21.429688 L 71.429688 21.429688 L 71.429688 24.285156 L 68.570312 24.285156 Z M 68.570312 21.429688 "/>
<path style=" stroke:none;fill-rule:evenodd;fill:rgb(35.686275%,43.137255%,88.235294%);fill-opacity:1;" d="M 65.714844 21.429688 L 68.570312 21.429688 L 68.570312 24.285156 L 65.714844 24.285156 Z M 65.714844 21.429688 "/>
<path style=" stroke:none;fill-rule:evenodd;fill:rgb(0%,0%,0%);fill-opacity:1;" d="M 62.855469 21.429688 L 65.714844 21.429688 L 65.714844 24.285156 L 62.855469 24.285156 Z M 62.855469 21.429688 "/>
<path style=" stroke:none;fill-rule:evenodd;fill:rgb(35.686275%,43.137255%,88.235294%);fill-opacity:1;" d="M 60 21.429688 L 62.855469 21.429688 L 62.855469 24.285156 L 60 24.285156 Z M 60 21.429688 "/>
<path style=" stroke:none;fill-rule:evenodd;fill:rgb(35.686275%,43.137255%,88.235294%);fill-opacity:1;" d="M 57.144531 21.429688 L 60 21.429688 L 60 24.285156 L 57.144531 24.285156 Z M 57.144531 21.429688 "/>
<path style=" stroke:none;fill-rule:evenodd;fill:rgb(35.686275%,43.137255%,88.235294%);fill-opacity:1;" d="M 54.285156 21.429688 L 57.144531 21.429688 L 57.144531 24.285156 L 54.285156 24.285156 Z M 54.285156 21.429688 "/>
<path style=" stroke:none;fill-rule:evenodd;fill:rgb(35.686275%,43.137255%,88.235294%);fill-opacity:1;" d="M 51.429688 21.429688 L 54.289062 21.429688 L 54.289062 24.285156 L 51.429688 24.285156 Z M 51.429688 21.429688 "/>
<path style=" stroke:none;fill-rule:evenodd;fill:rgb(35.686275%,43.137255%,88.235294%);fill-opacity:1;" d="M 48.570312 21.429688 L 51.429688 21.429688 L 51.429688 24.285156 L 48.570312 24.285156 Z M 48.570312 21.429688 "/>
<path style=" stroke:none;fill-rule:evenodd;fill:rgb(35.686275%,43.137255%,88.235294%);fill-opacity:1;" d="M 45.714844 21.429688 L 48.570312 21.429688 L 48.570312 24.285156 L 45.714844 24.285156 Z M 45.714844 21.429688 "/>
<path style=" stroke:none;fill-rule:evenodd;fill:rgb(35.686275%,43.137255%,88.235294%);fill-opacity:1;" d="M 42.855469 21.429688 L 45.714844 21.429688 L 45.714844 24.285156 L 42.855469 24.285156 Z M 42.855469 21.429688 "/>
<path style=" stroke:none;fill-rule:evenodd;fill:rgb(35.686275%,43.137255%,88.235294%);fill-opacity:1;" d="M 40 21.429688 L 42.855469 21.429688 L 42.855469 24.285156 L 40 24.285156 Z M 40 21.429688 "/>
<path style=" stroke:none;fill-rule:evenodd;fill:rgb(35.686275%,43.137255%,88.235294%);fill-opacity:1;" d="M 37.144531 21.429688 L 40 21.429688 L 40 24.285156 L 37.144531 24.285156 Z M 37.144531 21.429688 "/>
<path style=" stroke:none;fill-rule:evenodd;fill:rgb(35.686275%,43.137255%,88.235294%);fill-opacity:1;" d="M 34.285156 21.429688 L 37.144531 21.429688 L 37.144531 24.285156 L 34.285156 24.285156 Z M 34.285156 21.429688 "/>
<path style=" stroke:none;fill-rule:evenodd;fill:rgb(35.686275%,43.137255%,88.235294%);fill-opacity:1;" d="M 31.429688 21.429688 L 34.285156 21.429688 L 34.285156 24.285156 L 31.429688 24.285156 Z M 31.429688 21.429688 "/>
<path style=" stroke:none;fill-rule:evenodd;fill:rgb(35.686275%,43.137255%,88.235294%);fill-opacity:1;" d="M 28.570312 21.429688 L 31.429688 21.429688 L 31.429688 24.285156 L 28.570312 24.285156 Z M 28.570312 21.429688 "/>
<path style=" stroke:none;fill-rule:evenodd;fill:rgb(35.686275%,43.137255%,88.235294%);fill-opacity:1;" d="M 25.714844 21.429688 L 28.574219 21.429688 L 28.574219 24.285156 L 25.714844 24.285156 Z M 25.714844 21.429688 "/>
<path style=" stroke:none;fill-rule:evenodd;fill:rgb(35.686275%,43.137255%,88.235294%);fill-opacity:1;" d="M 22.855469 21.429688 L 25.714844 21.429688 L 25.714844 24.285156 L 22.855469 24.285156 Z M 22.855469 21.429688 "/>
<path style=" stroke:none;fill-rule:evenodd;fill:rgb(35.686275%,43.137255%,88.235294%);fill-opacity:1;" d="M 20 21.429688 L 22.855469 21.429688 L 22.855469 24.285156 L 20 24.285156 Z M 20 21.429688 "/>
<path style=" stroke:none;fill-rule:evenodd;fill:rgb(35.686275%,43.137255%,88.235294%);fill-opacity:1;" d="M 17.144531 21.429688 L 20 21.429688 L 20 24.285156 L 17.144531 24.285156 Z M 17.144531 21.429688 "/>
<path style=" stroke:none;fill-rule:evenodd;fill:rgb(0%,0%,0%);fill-opacity:1;" d="M 14.285156 21.429688 L 17.144531 21.429688 L 17.144531 24.285156 L 14.285156 24.285156 Z M 14.285156 21.429688 "/>
<path style=" stroke:none;fill-rule:evenodd;fill:rgb(0%,0%,0%);fill-opacity:1;" d="M 68.570312 18.570312 L 71.429688 18.570312 L 71.429688 21.429688 L 68.570312 21.429688 Z M 68.570312 18.570312 "/>
<path style=" stroke:none;fill-rule:evenodd;fill:rgb(0%,0%,0%);fill-opacity:1;" d="M 65.714844 18.570312 L 68.570312 18.570312 L 68.570312 21.429688 L 65.714844 21.429688 Z M 65.714844 18.570312 "/>
<path style=" stroke:none;fill-rule:evenodd;fill:rgb(35.686275%,43.137255%,88.235294%);fill-opacity:1;" d="M 62.855469 18.570312 L 65.714844 18.570312 L 65.714844 21.429688 L 62.855469 21.429688 Z M 62.855469 18.570312 "/>
<path style=" stroke:none;fill-rule:evenodd;fill:rgb(35.686275%,43.137255%,88.235294%);fill-opacity:1;" d="M 60 18.570312 L 62.855469 18.570312 L 62.855469 21.429688 L 60 21.429688 Z M 60 18.570312 "/>
<path style=" stroke:none;fill-rule:evenodd;fill:rgb(35.686275%,43.137255%,88.235294%);fill-opacity:1;" d="M 57.144531 18.570312 L 60 18.570312 L 60 21.429688 L 57.144531 21.429688 Z M 57.144531 18.570312 "/>
<path style=" stroke:none;fill-rule:evenodd;fill:rgb(35.686275%,43.137255%,88.235294%);fill-opacity:1;" d="M 54.285156 18.570312 L 57.144531 18.570312 L 57.144531 21.429688 L 54.285156 21.429688 Z M 54.285156 18.570312 "/>
<path style=" stroke:none;fill-rule:evenodd;fill:rgb(35.686275%,43.137255%,88.235294%);fill-opacity:1;" d="M 51.429688 18.570312 L 54.289062 18.570312 L 54.289062 21.429688 L 51.429688 21.429688 Z M 51.429688 18.570312 "/>
<path style=" stroke:none;fill-rule:evenodd;fill:rgb(35.686275%,43.137255%,88.235294%);fill-opacity:1;" d="M 48.570312 18.570312 L 51.429688 18.570312 L 51.429688 21.429688 L 48.570312 21.429688 Z M 48.570312 18.570312 "/>
<path style=" stroke:none;fill-rule:evenodd;fill:rgb(35.686275%,43.137255%,88.235294%);fill-opacity:1;" d="M 45.714844 18.570312 L 48.570312 18.570312 L 48.570312 21.429688 L 45.714844 21.429688 Z M 45.714844 18.570312 "/>
<path style=" stroke:none;fill-rule:evenodd;fill:rgb(35.686275%,43.137255%,88.235294%);fill-opacity:1;" d="M 42.855469 18.570312 L 45.714844 18.570312 L 45.714844 21.429688 L 42.855469 21.429688 Z M 42.855469 18.570312 "/>
<path style=" stroke:none;fill-rule:evenodd;fill:rgb(0%,0%,0%);fill-opacity:1;" d="M 40 18.570312 L 42.855469 18.570312 L 42.855469 21.429688 L 40 21.429688 Z M 40 18.570312 "/>
<path style=" stroke:none;fill-rule:evenodd;fill:rgb(35.686275%,43.137255%,88.235294%);fill-opacity:1;" d="M 37.144531 18.570312 L 40 18.570312 L 40 21.429688 L 37.144531 21.429688 Z M 37.144531 18.570312 "/>
<path style=" stroke:none;fill-rule:evenodd;fill:rgb(35.686275%,43.137255%,88.235294%);fill-opacity:1;" d="M 34.285156 18.570312 L 37.144531 18.570312 L 37.144531 21.429688 L 34.285156 21.429688 Z M 34.285156 18.570312 "/>
<path style=" stroke:none;fill-rule:evenodd;fill:rgb(35.686275%,43.137255%,88.235294%);fill-opacity:1;" d="M 31.429688 18.570312 L 34.285156 18.570312 L 34.285156 21.429688 L 31.429688 21.429688 Z M 31.429688 18.570312 "/>
<path style=" stroke:none;fill-rule:evenodd;fill:rgb(35.686275%,43.137255%,88.235294%);fill-opacity:1;" d="M 28.570312 18.570312 L 31.429688 18.570312 L 31.429688 21.429688 L 28.570312 21.429688 Z M 28.570312 18.570312 "/>
<path style=" stroke:none;fill-rule:evenodd;fill:rgb(35.686275%,43.137255%,88.235294%);fill-opacity:1;" d="M 25.714844 18.570312 L 28.574219 18.570312 L 28.574219 21.429688 L 25.714844 21.429688 Z M 25.714844 18.570312 "/>
<path style=" stroke:none;fill-rule:evenodd;fill:rgb(35.686275%,43.137255%,88.235294%);fill-opacity:1;" d="M 22.855469 18.570312 L 25.714844 18.570312 L 25.714844 21.429688 L 22.855469 21.429688 Z M 22.855469 18.570312 "/>
<path style=" stroke:none;fill-rule:evenodd;fill:rgb(35.686275%,43.137255%,88.235294%);fill-opacity:1;" d="M 20 18.570312 L 22.855469 18.570312 L 22.855469 21.429688 L 20 21.429688 Z M 20 18.570312 "/>
<path style=" stroke:none;fill-rule:evenodd;fill:rgb(0%,0%,0%);fill-opacity:1;" d="M 17.144531 18.570312 L 20 18.570312 L 20 21.429688 L 17.144531 21.429688 Z M 17.144531 18.570312 "/>
<path style=" stroke:none;fill-rule:evenodd;fill:rgb(0%,0%,0%);fill-opacity:1;" d="M 65.714844 15.714844 L 68.570312 15.714844 L 68.570312 18.570312 L 65.714844 18.570312 Z M 65.714844 15.714844 "/>
<path style=" stroke:none;fill-rule:evenodd;fill:rgb(0%,0%,0%);fill-opacity:1;" d="M 62.855469 15.714844 L 65.714844 15.714844 L 65.714844 18.570312 L 62.855469 18.570312 Z M 62.855469 15.714844 "/>
<path style=" stroke:none;fill-rule:evenodd;fill:rgb(0%,0%,0%);fill-opacity:1;" d="M 60 15.714844 L 62.855469 15.714844 L 62.855469 18.570312 L 60 18.570312 Z M 60 15.714844 "/>
<path style=" stroke:none;fill-rule:evenodd;fill:rgb(0%,0%,0%);fill-opacity:1;" d="M 57.144531 15.714844 L 60 15.714844 L 60 18.570312 L 57.144531 18.570312 Z M 57.144531 15.714844 "/>
<path style=" stroke:none;fill-rule:evenodd;fill:rgb(0%,0%,0%);fill-opacity:1;" d="M 54.285156 15.714844 L 57.144531 15.714844 L 57.144531 18.570312 L 54.285156 18.570312 Z M 54.285156 15.714844 "/>
<path style=" stroke:none;fill-rule:evenodd;fill:rgb(0%,0%,0%);fill-opacity:1;" d="M 51.429688 15.714844 L 54.289062 15.714844 L 54.289062 18.570312 L 51.429688 18.570312 Z M 51.429688 15.714844 "/>
<path style=" stroke:none;fill-rule:evenodd;fill:rgb(0%,0%,0%);fill-opacity:1;" d="M 48.570312 15.714844 L 51.429688 15.714844 L 51.429688 18.570312 L 48.570312 18.570312 Z M 48.570312 15.714844 "/>
<path style=" stroke:none;fill-rule:evenodd;fill:rgb(0%,0%,0%);fill-opacity:1;" d="M 45.714844 15.714844 L 48.570312 15.714844 L 48.570312 18.570312 L 45.714844 18.570312 Z M 45.714844 15.714844 "/>
<path style=" stroke:none;fill-rule:evenodd;fill:rgb(0%,0%,0%);fill-opacity:1;" d="M 42.855469 15.714844 L 45.714844 15.714844 L 45.714844 18.570312 L 42.855469 18.570312 Z M 42.855469 15.714844 "/>
<path style=" stroke:none;fill-rule:evenodd;fill:rgb(35.686275%,43.137255%,88.235294%);fill-opacity:1;" d="M 40 15.714844 L 42.855469 15.714844 L 42.855469 18.570312 L 40 18.570312 Z M 40 15.714844 "/>
<path style=" stroke:none;fill-rule:evenodd;fill:rgb(0%,0%,0%);fill-opacity:1;" d="M 37.144531 15.714844 L 40 15.714844 L 40 18.570312 L 37.144531 18.570312 Z M 37.144531 15.714844 "/>
<path style=" stroke:none;fill-rule:evenodd;fill:rgb(0%,0%,0%);fill-opacity:1;" d="M 34.285156 15.714844 L 37.144531 15.714844 L 37.144531 18.570312 L 34.285156 18.570312 Z M 34.285156 15.714844 "/>
<path style=" stroke:none;fill-rule:evenodd;fill:rgb(0%,0%,0%);fill-opacity:1;" d="M 31.429688 15.714844 L 34.285156 15.714844 L 34.285156 18.570312 L 31.429688 18.570312 Z M 31.429688 15.714844 "/>
<path style=" stroke:none;fill-rule:evenodd;fill:rgb(0%,0%,0%);fill-opacity:1;" d="M 28.570312 15.714844 L 31.429688 15.714844 L 31.429688 18.570312 L 28.570312 18.570312 Z M 28.570312 15.714844 "/>
<path style=" stroke:none;fill-rule:evenodd;fill:rgb(0%,0%,0%);fill-opacity:1;" d="M 25.714844 15.714844 L 28.574219 15.714844 L 28.574219 18.570312 L 25.714844 18.570312 Z M 25.714844 15.714844 "/>
<path style=" stroke:none;fill-rule:evenodd;fill:rgb(0%,0%,0%);fill-opacity:1;" d="M 22.855469 15.714844 L 25.714844 15.714844 L 25.714844 18.570312 L 22.855469 18.570312 Z M 22.855469 15.714844 "/>
<path style=" stroke:none;fill-rule:evenodd;fill:rgb(0%,0%,0%);fill-opacity:1;" d="M 20 15.714844 L 22.855469 15.714844 L 22.855469 18.570312 L 20 18.570312 Z M 20 15.714844 "/>
<path style=" stroke:none;fill-rule:evenodd;fill:rgb(0%,0%,0%);fill-opacity:1;" d="M 40 12.855469 L 42.855469 12.855469 L 42.855469 15.714844 L 40 15.714844 Z M 40 12.855469 "/>
<path style=" stroke:none;fill-rule:evenodd;fill:rgb(0%,0%,0%);fill-opacity:1;" d="M 40 7.144531 L 42.855469 7.144531 L 42.855469 10 L 40 10 Z M 40 7.144531 "/>
</g>
</svg>
