<?xml version="1.0" encoding="UTF-8"?>
<svg xmlns="http://www.w3.org/2000/svg" xmlns:xlink="http://www.w3.org/1999/xlink" width="80px" height="80px" viewBox="0 0 80 80" version="1.1">
<g id="surface1">
<path style=" stroke:none;fill-rule:nonzero;fill:rgb(7.45098%,7.45098%,7.45098%);fill-opacity:1;" d="M 39.84375 69.789062 C 39.160156 69.789062 38.597656 69.230469 38.597656 68.542969 L 38.597656 58.519531 C 38.597656 57.835938 39.160156 57.277344 39.84375 57.277344 C 40.527344 57.277344 41.089844 57.835938 41.089844 58.519531 L 41.089844 68.542969 C 41.089844 69.230469 40.527344 69.789062 39.84375 69.789062 Z M 35.363281 80 L 26.335938 80 C 25.648438 80 25.089844 79.441406 25.089844 78.753906 C 25.089844 78.070312 25.648438 77.507812 26.335938 77.507812 L 35.363281 77.507812 C 36.046875 77.507812 36.605469 78.070312 36.605469 78.753906 C 36.605469 79.441406 36.046875 80 35.363281 80 Z M 53.167969 80 L 44.140625 80 C 43.457031 80 42.894531 79.441406 42.894531 78.753906 C 42.894531 78.070312 43.457031 77.507812 44.140625 77.507812 L 53.167969 77.507812 C 53.851562 77.507812 54.414062 78.070312 54.414062 78.753906 C 54.414062 79.441406 53.851562 80 53.167969 80 Z M 53.167969 80 "/>
<path style=" stroke:none;fill-rule:nonzero;fill:rgb(7.45098%,7.45098%,7.45098%);fill-opacity:1;" d="M 29.570312 79.75 C 29.261719 79.75 28.949219 79.625 28.699219 79.378906 C 28.203125 78.878906 28.203125 78.132812 28.699219 77.632812 L 38.972656 67.363281 C 39.472656 66.863281 40.21875 66.863281 40.714844 67.363281 L 50.988281 77.632812 C 51.488281 78.132812 51.488281 78.878906 50.988281 79.378906 C 50.492188 79.875 49.742188 79.875 49.246094 79.378906 L 39.84375 69.976562 L 30.445312 79.378906 C 30.195312 79.625 29.882812 79.75 29.570312 79.75 Z M 29.570312 79.75 "/>
<path style=" stroke:none;fill-rule:nonzero;fill:rgb(48.627451%,69.019608%,94.509804%);fill-opacity:1;" d="M 3.238281 1.246094 L 76.699219 1.246094 C 77.695312 1.246094 78.445312 2.054688 78.445312 2.988281 L 78.445312 56.714844 C 78.445312 57.710938 77.632812 58.460938 76.699219 58.460938 L 3.238281 58.460938 C 2.304688 58.519531 1.496094 57.710938 1.496094 56.777344 L 1.496094 2.988281 C 1.496094 2.054688 2.304688 1.246094 3.238281 1.246094 Z M 3.238281 1.246094 "/>
<path style=" stroke:none;fill-rule:nonzero;fill:rgb(7.45098%,7.45098%,7.45098%);fill-opacity:1;" d="M 76.699219 59.765625 L 3.238281 59.765625 C 1.617188 59.765625 0.25 58.398438 0.25 56.777344 L 0.25 2.988281 C 0.25 1.371094 1.617188 0 3.238281 0 L 76.699219 0 C 78.382812 0 79.6875 1.371094 79.6875 2.988281 L 79.6875 56.714844 C 79.75 58.398438 78.382812 59.765625 76.699219 59.765625 Z M 3.238281 2.492188 C 2.988281 2.492188 2.738281 2.738281 2.738281 2.988281 L 2.738281 56.714844 C 2.738281 57.027344 2.988281 57.277344 3.238281 57.277344 L 76.699219 57.277344 C 77.011719 57.277344 77.199219 57.027344 77.199219 56.777344 L 77.199219 2.988281 C 77.199219 2.675781 76.949219 2.492188 76.699219 2.492188 Z M 3.238281 2.492188 "/>
<path style=" stroke:none;fill-rule:nonzero;fill:rgb(92.156863%,95.686275%,100%);fill-opacity:1;" d="M 6.039062 6.039062 L 73.710938 6.039062 L 73.710938 53.789062 L 6.039062 53.789062 Z M 6.039062 6.039062 "/>
<path style=" stroke:none;fill-rule:nonzero;fill:rgb(7.45098%,7.45098%,7.45098%);fill-opacity:1;" d="M 73.710938 54.972656 L 6.039062 54.972656 C 5.355469 54.972656 4.792969 54.414062 4.792969 53.726562 L 4.792969 6.039062 C 4.792969 5.355469 5.355469 4.792969 6.039062 4.792969 L 73.710938 4.792969 C 74.398438 4.792969 74.957031 5.355469 74.957031 6.039062 L 74.957031 53.789062 C 74.957031 54.414062 74.398438 54.972656 73.710938 54.972656 Z M 7.285156 52.484375 L 72.46875 52.484375 L 72.46875 7.285156 L 7.285156 7.285156 Z M 7.285156 52.484375 "/>
<path style=" stroke:none;fill-rule:nonzero;fill:rgb(7.45098%,7.45098%,7.45098%);fill-opacity:1;" d="M 68.730469 44.949219 L 56.15625 44.949219 C 55.472656 44.949219 54.910156 44.390625 54.910156 43.703125 C 54.910156 43.019531 55.472656 42.460938 56.15625 42.460938 L 68.730469 42.460938 C 69.417969 42.460938 69.976562 43.019531 69.976562 43.703125 C 69.976562 44.390625 69.417969 44.949219 68.730469 44.949219 Z M 60.824219 50.304688 L 56.15625 50.304688 C 55.472656 50.304688 54.910156 49.742188 54.910156 49.058594 C 54.910156 48.375 55.472656 47.8125 56.15625 47.8125 L 60.824219 47.8125 C 61.507812 47.8125 62.070312 48.375 62.070312 49.058594 C 62.070312 49.742188 61.507812 50.304688 60.824219 50.304688 Z M 37.105469 42.210938 C 36.792969 42.210938 36.484375 42.085938 36.234375 41.835938 L 19.488281 25.152344 C 18.988281 24.652344 18.988281 23.90625 19.488281 23.410156 C 19.984375 22.910156 20.730469 22.910156 21.230469 23.410156 L 37.914062 40.09375 C 38.414062 40.589844 38.414062 41.339844 37.914062 41.835938 C 37.726562 42.148438 37.417969 42.210938 37.105469 42.210938 Z M 39.84375 42.023438 C 39.65625 42.023438 39.410156 41.960938 39.222656 41.835938 C 38.597656 41.523438 38.414062 40.714844 38.722656 40.15625 L 51.300781 17.867188 C 51.609375 17.246094 52.421875 17.058594 52.980469 17.371094 C 53.601562 17.679688 53.789062 18.492188 53.480469 19.050781 L 40.964844 41.402344 C 40.714844 41.773438 40.28125 42.023438 39.84375 42.023438 Z M 39.84375 42.023438 "/>
<path style=" stroke:none;fill-rule:nonzero;fill:rgb(7.45098%,7.45098%,7.45098%);fill-opacity:1;" d="M 22.414062 44.453125 C 22.101562 44.453125 21.789062 44.328125 21.539062 44.078125 C 21.042969 43.578125 21.042969 42.769531 21.539062 42.335938 L 37.355469 26.894531 C 37.851562 26.398438 38.660156 26.398438 39.097656 26.894531 C 39.59375 27.394531 39.59375 28.203125 39.097656 28.636719 L 23.285156 44.078125 C 23.035156 44.328125 22.722656 44.453125 22.414062 44.453125 Z M 58.644531 27.457031 L 42.148438 27.457031 C 41.464844 27.457031 40.902344 26.894531 40.902344 26.210938 C 40.902344 25.523438 41.464844 24.964844 42.148438 24.964844 L 58.582031 24.964844 C 59.269531 24.964844 59.828125 25.523438 59.828125 26.210938 C 59.828125 26.894531 59.332031 27.457031 58.644531 27.457031 Z M 58.644531 27.457031 "/>
<path style=" stroke:none;fill-rule:nonzero;fill:rgb(92.156863%,95.686275%,100%);fill-opacity:1;" d="M 16.375 22.722656 C 16.375 23.996094 17.40625 25.027344 18.675781 25.027344 C 19.949219 25.027344 20.980469 23.996094 20.980469 22.722656 C 20.980469 21.453125 19.949219 20.421875 18.675781 20.421875 C 17.40625 20.421875 16.375 21.453125 16.375 22.722656 Z M 16.375 22.722656 "/>
<path style=" stroke:none;fill-rule:nonzero;fill:rgb(7.45098%,7.45098%,7.45098%);fill-opacity:1;" d="M 18.675781 26.273438 C 16.746094 26.273438 15.128906 24.714844 15.128906 22.722656 C 15.128906 20.792969 16.683594 19.175781 18.675781 19.175781 C 20.605469 19.175781 22.226562 20.730469 22.226562 22.722656 C 22.226562 24.714844 20.667969 26.273438 18.675781 26.273438 Z M 18.675781 21.726562 C 18.117188 21.726562 17.617188 22.164062 17.617188 22.785156 C 17.617188 23.347656 18.054688 23.84375 18.675781 23.84375 C 19.238281 23.84375 19.734375 23.410156 19.734375 22.785156 C 19.734375 22.164062 19.300781 21.726562 18.675781 21.726562 Z M 18.675781 21.726562 "/>
<path style=" stroke:none;fill-rule:nonzero;fill:rgb(92.156863%,95.686275%,100%);fill-opacity:1;" d="M 36.296875 42.644531 C 36.296875 43.917969 37.328125 44.949219 38.597656 44.949219 C 39.871094 44.949219 40.902344 43.917969 40.902344 42.644531 C 40.902344 41.375 39.871094 40.34375 38.597656 40.34375 C 37.328125 40.34375 36.296875 41.375 36.296875 42.644531 Z M 36.296875 42.644531 "/>
<path style=" stroke:none;fill-rule:nonzero;fill:rgb(7.45098%,7.45098%,7.45098%);fill-opacity:1;" d="M 38.597656 46.195312 C 36.667969 46.195312 35.050781 44.636719 35.050781 42.644531 C 35.050781 40.652344 36.605469 39.097656 38.597656 39.097656 C 40.527344 39.097656 42.148438 40.652344 42.148438 42.644531 C 42.148438 44.636719 40.589844 46.195312 38.597656 46.195312 Z M 38.597656 41.648438 C 38.039062 41.648438 37.539062 42.085938 37.539062 42.707031 C 37.539062 43.332031 37.976562 43.765625 38.597656 43.765625 C 39.160156 43.765625 39.65625 43.332031 39.65625 42.707031 C 39.65625 42.085938 39.222656 41.648438 38.597656 41.648438 Z M 38.597656 41.648438 "/>
<path style=" stroke:none;fill-rule:nonzero;fill:rgb(92.156863%,95.686275%,100%);fill-opacity:1;" d="M 37.601562 26.148438 C 37.601562 27.421875 38.632812 28.453125 39.90625 28.453125 C 41.179688 28.453125 42.210938 27.421875 42.210938 26.148438 C 42.210938 24.875 41.179688 23.84375 39.90625 23.84375 C 38.632812 23.84375 37.601562 24.875 37.601562 26.148438 Z M 37.601562 26.148438 "/>
<path style=" stroke:none;fill-rule:nonzero;fill:rgb(7.45098%,7.45098%,7.45098%);fill-opacity:1;" d="M 39.90625 29.695312 C 37.976562 29.695312 36.359375 28.140625 36.359375 26.148438 C 36.359375 24.21875 37.914062 22.597656 39.90625 22.597656 C 41.898438 22.597656 43.457031 24.15625 43.457031 26.148438 C 43.394531 28.140625 41.835938 29.695312 39.90625 29.695312 Z M 39.90625 25.152344 C 39.347656 25.152344 38.847656 25.585938 38.847656 26.210938 C 38.847656 26.769531 39.285156 27.269531 39.90625 27.269531 C 40.527344 27.269531 40.964844 26.832031 40.964844 26.210938 C 40.902344 25.585938 40.46875 25.152344 39.90625 25.152344 Z M 39.90625 25.152344 "/>
<path style=" stroke:none;fill-rule:nonzero;fill:rgb(92.156863%,95.686275%,100%);fill-opacity:1;" d="M 58.519531 26.148438 C 58.519531 27.421875 59.550781 28.453125 60.824219 28.453125 C 62.097656 28.453125 63.128906 27.421875 63.128906 26.148438 C 63.128906 24.875 62.097656 23.84375 60.824219 23.84375 C 59.550781 23.84375 58.519531 24.875 58.519531 26.148438 Z M 58.519531 26.148438 "/>
<path style=" stroke:none;fill-rule:nonzero;fill:rgb(7.45098%,7.45098%,7.45098%);fill-opacity:1;" d="M 60.824219 29.695312 C 58.894531 29.695312 57.277344 28.140625 57.277344 26.148438 C 57.277344 24.21875 58.832031 22.597656 60.824219 22.597656 C 62.816406 22.597656 64.375 24.15625 64.375 26.148438 C 64.375 28.140625 62.816406 29.695312 60.824219 29.695312 Z M 60.824219 25.152344 C 60.265625 25.152344 59.765625 25.585938 59.765625 26.210938 C 59.765625 26.769531 60.203125 27.269531 60.824219 27.269531 C 61.449219 27.269531 61.882812 26.769531 61.882812 26.210938 C 61.882812 25.585938 61.386719 25.152344 60.824219 25.152344 Z M 60.824219 25.152344 "/>
<path style=" stroke:none;fill-rule:nonzero;fill:rgb(92.156863%,95.686275%,100%);fill-opacity:1;" d="M 51.050781 16.1875 C 51.050781 17.457031 52.082031 18.492188 53.355469 18.492188 C 54.625 18.492188 55.65625 17.457031 55.65625 16.1875 C 55.65625 14.914062 54.625 13.882812 53.355469 13.882812 C 52.082031 13.882812 51.050781 14.914062 51.050781 16.1875 Z M 51.050781 16.1875 "/>
<path style=" stroke:none;fill-rule:nonzero;fill:rgb(7.45098%,7.45098%,7.45098%);fill-opacity:1;" d="M 53.355469 19.734375 C 51.425781 19.734375 49.804688 18.179688 49.804688 16.1875 C 49.804688 14.195312 51.363281 12.636719 53.355469 12.636719 C 55.347656 12.636719 56.902344 14.257812 56.902344 16.1875 C 56.902344 18.117188 55.347656 19.734375 53.355469 19.734375 Z M 53.355469 15.191406 C 52.792969 15.191406 52.296875 15.625 52.296875 16.25 C 52.296875 16.871094 52.730469 17.308594 53.355469 17.308594 C 53.976562 17.308594 54.414062 16.808594 54.414062 16.1875 C 54.414062 15.5625 53.976562 15.191406 53.355469 15.191406 Z M 53.355469 15.191406 "/>
<path style=" stroke:none;fill-rule:nonzero;fill:rgb(92.156863%,95.686275%,100%);fill-opacity:1;" d="M 18.675781 44.949219 C 18.675781 46.222656 19.707031 47.253906 20.980469 47.253906 C 22.253906 47.253906 23.285156 46.222656 23.285156 44.949219 C 23.285156 43.675781 22.253906 42.644531 20.980469 42.644531 C 19.707031 42.644531 18.675781 43.675781 18.675781 44.949219 Z M 18.675781 44.949219 "/>
<path style=" stroke:none;fill-rule:nonzero;fill:rgb(7.45098%,7.45098%,7.45098%);fill-opacity:1;" d="M 20.980469 48.5 C 19.050781 48.5 17.433594 46.941406 17.433594 44.949219 C 17.433594 43.019531 18.988281 41.402344 20.980469 41.402344 C 22.972656 41.402344 24.527344 42.957031 24.527344 44.949219 C 24.527344 46.878906 22.910156 48.5 20.980469 48.5 Z M 20.980469 43.953125 C 20.421875 43.953125 19.921875 44.390625 19.921875 45.011719 C 19.921875 45.632812 20.359375 46.070312 20.980469 46.070312 C 21.601562 46.070312 22.039062 45.632812 22.039062 45.011719 C 22.039062 44.390625 21.539062 43.953125 20.980469 43.953125 Z M 20.980469 43.953125 "/>
</g>
</svg>
