<?xml version="1.0" encoding="UTF-8"?>
<svg xmlns="http://www.w3.org/2000/svg" xmlns:xlink="http://www.w3.org/1999/xlink" width="80px" height="80px" viewBox="0 0 80 80" version="1.1">
<g id="surface1">
<path style=" stroke:none;fill-rule:nonzero;fill:rgb(98.039216%,82.352941%,30.196078%);fill-opacity:1;" d="M 80 40 C 80 62.089844 62.089844 80 40 80 C 17.910156 80 0 62.089844 0 40 C 0 17.910156 17.910156 0 40 0 C 62.089844 0 80 17.910156 80 40 Z M 80 40 "/>
<path style=" stroke:none;fill-rule:nonzero;fill:rgb(92.941176%,72.54902%,21.568627%);fill-opacity:1;" d="M 68.480469 65.882812 C 68.480469 64.640625 55.730469 63.636719 40 63.636719 C 24.269531 63.636719 11.519531 64.640625 11.519531 65.882812 C 11.519531 67.121094 24.269531 68.128906 40 68.128906 C 55.730469 68.128906 68.480469 67.121094 68.480469 65.882812 Z M 68.480469 65.882812 "/>
<path style=" stroke:none;fill-rule:nonzero;fill:rgb(40%,40%,40%);fill-opacity:1;" d="M 10.308594 10.503906 L 69.691406 10.503906 C 71.640625 10.503906 73.238281 12.101562 73.238281 14.050781 L 73.238281 50.628906 L 6.761719 50.628906 L 6.761719 14.050781 C 6.761719 12.101562 8.359375 10.503906 10.308594 10.503906 Z M 10.308594 10.503906 "/>
<path style=" stroke:none;fill-rule:nonzero;fill:rgb(100%,100%,100%);fill-opacity:1;" d="M 9.171875 48.222656 L 70.828125 48.222656 L 70.828125 14.050781 C 70.828125 13.429688 70.3125 12.910156 69.691406 12.910156 L 10.308594 12.910156 C 9.6875 12.910156 9.171875 13.429688 9.171875 14.050781 Z M 9.171875 48.222656 "/>
<path style=" stroke:none;fill-rule:nonzero;fill:rgb(100%,100%,100%);fill-opacity:1;" d="M 73.238281 50.628906 L 73.238281 54.507812 C 73.238281 56.460938 71.476562 58.054688 69.328125 58.054688 L 10.671875 58.054688 C 8.523438 58.054688 6.761719 56.460938 6.761719 54.507812 L 6.761719 50.628906 Z M 73.238281 50.628906 "/>
<path style=" stroke:none;fill-rule:nonzero;fill:rgb(71.372549%,71.372549%,72.156863%);fill-opacity:1;" d="M 41.222656 54.1875 C 41.222656 54.863281 40.675781 55.410156 40 55.410156 C 39.324219 55.410156 38.777344 54.863281 38.777344 54.1875 C 38.777344 53.511719 39.324219 52.964844 40 52.964844 C 40.675781 52.964844 41.222656 53.511719 41.222656 54.1875 Z M 41.222656 54.1875 "/>
<path style=" stroke:none;fill-rule:nonzero;fill:rgb(76.078431%,76.078431%,76.862745%);fill-opacity:1;" d="M 47.667969 63.636719 L 53.304688 65.445312 L 26.691406 65.445312 L 31.242188 63.636719 L 31.242188 58.054688 L 47.667969 58.054688 Z M 47.667969 63.636719 "/>
<path style=" stroke:none;fill-rule:nonzero;fill:rgb(92.54902%,94.117647%,94.509804%);fill-opacity:1;" d="M 31.242188 63.636719 L 47.667969 63.636719 L 53.304688 65.445312 L 53.304688 66.222656 L 26.695312 66.222656 L 26.695312 65.445312 Z M 31.242188 63.636719 "/>
<path style=" stroke:none;fill-rule:nonzero;fill:rgb(56.862745%,56.862745%,56.862745%);fill-opacity:1;" d="M 31.242188 58.054688 L 47.667969 58.054688 L 47.667969 63.636719 Z M 31.242188 58.054688 "/>
<path style=" stroke:none;fill-rule:nonzero;fill:rgb(12.54902%,81.568627%,76.078431%);fill-opacity:1;" d="M 11.851562 15.234375 L 18.21875 15.234375 L 18.21875 16.332031 L 11.851562 16.332031 Z M 11.851562 15.234375 "/>
<path style=" stroke:none;fill-rule:nonzero;fill:rgb(100%,35.686275%,38.431373%);fill-opacity:1;" d="M 18.953125 15.234375 L 30.246094 15.234375 L 30.246094 16.332031 L 18.953125 16.332031 Z M 18.953125 15.234375 "/>
<path style=" stroke:none;fill-rule:nonzero;fill:rgb(98.039216%,82.352941%,30.196078%);fill-opacity:1;" d="M 30.789062 15.234375 L 40.402344 15.234375 L 40.402344 16.332031 L 30.789062 16.332031 Z M 30.789062 15.234375 "/>
<path style=" stroke:none;fill-rule:nonzero;fill:rgb(98.039216%,82.352941%,30.196078%);fill-opacity:1;" d="M 18.539062 19.746094 L 21.917969 19.746094 L 21.917969 20.839844 L 18.539062 20.839844 Z M 18.539062 19.746094 "/>
<path style=" stroke:none;fill-rule:nonzero;fill:rgb(100%,35.686275%,38.431373%);fill-opacity:1;" d="M 22.304688 19.746094 L 28.296875 19.746094 L 28.296875 20.839844 L 22.304688 20.839844 Z M 22.304688 19.746094 "/>
<path style=" stroke:none;fill-rule:nonzero;fill:rgb(12.54902%,81.568627%,76.078431%);fill-opacity:1;" d="M 28.585938 19.746094 L 33.6875 19.746094 L 33.6875 20.839844 L 28.585938 20.839844 Z M 28.585938 19.746094 "/>
<path style=" stroke:none;fill-rule:nonzero;fill:rgb(12.54902%,81.568627%,76.078431%);fill-opacity:1;" d="M 11.8125 21.671875 L 17.746094 21.671875 L 17.746094 22.765625 L 11.8125 22.765625 Z M 11.8125 21.671875 "/>
<path style=" stroke:none;fill-rule:nonzero;fill:rgb(98.039216%,82.352941%,30.196078%);fill-opacity:1;" d="M 18.429688 21.671875 L 28.953125 21.671875 L 28.953125 22.765625 L 18.429688 22.765625 Z M 18.429688 21.671875 "/>
<path style=" stroke:none;fill-rule:nonzero;fill:rgb(100%,35.686275%,38.431373%);fill-opacity:1;" d="M 18.144531 23.972656 L 24.078125 23.972656 L 24.078125 25.066406 L 18.144531 25.066406 Z M 18.144531 23.972656 "/>
<path style=" stroke:none;fill-rule:nonzero;fill:rgb(12.54902%,81.568627%,76.078431%);fill-opacity:1;" d="M 24.765625 23.972656 L 35.289062 23.972656 L 35.289062 25.066406 L 24.765625 25.066406 Z M 24.765625 23.972656 "/>
<path style=" stroke:none;fill-rule:nonzero;fill:rgb(98.039216%,82.352941%,30.196078%);fill-opacity:1;" d="M 12.867188 26.171875 L 18.800781 26.171875 L 18.800781 27.269531 L 12.867188 27.269531 Z M 12.867188 26.171875 "/>
<path style=" stroke:none;fill-rule:nonzero;fill:rgb(12.54902%,81.568627%,76.078431%);fill-opacity:1;" d="M 19.585938 26.171875 L 23.832031 26.171875 L 23.832031 27.269531 L 19.585938 27.269531 Z M 19.585938 26.171875 "/>
<path style=" stroke:none;fill-rule:nonzero;fill:rgb(100%,35.686275%,38.431373%);fill-opacity:1;" d="M 24.832031 26.171875 L 36.757812 26.171875 L 36.757812 27.269531 L 24.832031 27.269531 Z M 24.832031 26.171875 "/>
<path style=" stroke:none;fill-rule:nonzero;fill:rgb(12.54902%,81.568627%,76.078431%);fill-opacity:1;" d="M 37.628906 26.171875 L 41.875 26.171875 L 41.875 27.269531 L 37.628906 27.269531 Z M 37.628906 26.171875 "/>
<path style=" stroke:none;fill-rule:nonzero;fill:rgb(12.54902%,81.568627%,76.078431%);fill-opacity:1;" d="M 11.601562 28.472656 L 27.480469 28.472656 L 27.480469 29.570312 L 11.601562 29.570312 Z M 11.601562 28.472656 "/>
<path style=" stroke:none;fill-rule:nonzero;fill:rgb(98.039216%,82.352941%,30.196078%);fill-opacity:1;" d="M 28.171875 28.472656 L 32.417969 28.472656 L 32.417969 29.570312 L 28.171875 29.570312 Z M 28.171875 28.472656 "/>
<path style=" stroke:none;fill-rule:nonzero;fill:rgb(100%,35.686275%,38.431373%);fill-opacity:1;" d="M 33.023438 28.472656 L 38.957031 28.472656 L 38.957031 29.570312 L 33.023438 29.570312 Z M 33.023438 28.472656 "/>
<path style=" stroke:none;fill-rule:nonzero;fill:rgb(100%,100%,100%);fill-opacity:1;" d="M 18.808594 17.359375 L 19.246094 17.359375 L 19.246094 18.671875 L 18.808594 18.671875 Z M 18.808594 17.359375 "/>
<path style=" stroke:none;fill-rule:nonzero;fill:rgb(100%,100%,100%);fill-opacity:1;" d="M 30.1875 21.671875 L 30.625 21.671875 L 30.625 22.984375 L 30.1875 22.984375 Z M 30.1875 21.671875 "/>
<path style=" stroke:none;fill-rule:nonzero;fill:rgb(12.54902%,81.568627%,76.078431%);fill-opacity:1;" d="M 11.851562 31.71875 L 18.21875 31.71875 L 18.21875 32.8125 L 11.851562 32.8125 Z M 11.851562 31.71875 "/>
<path style=" stroke:none;fill-rule:nonzero;fill:rgb(100%,35.686275%,38.431373%);fill-opacity:1;" d="M 18.953125 31.71875 L 30.246094 31.71875 L 30.246094 32.8125 L 18.953125 32.8125 Z M 18.953125 31.71875 "/>
<path style=" stroke:none;fill-rule:nonzero;fill:rgb(98.039216%,82.352941%,30.196078%);fill-opacity:1;" d="M 30.789062 31.71875 L 40.402344 31.71875 L 40.402344 32.8125 L 30.789062 32.8125 Z M 30.789062 31.71875 "/>
<path style=" stroke:none;fill-rule:nonzero;fill:rgb(98.039216%,82.352941%,30.196078%);fill-opacity:1;" d="M 18.539062 36.226562 L 21.917969 36.226562 L 21.917969 37.324219 L 18.539062 37.324219 Z M 18.539062 36.226562 "/>
<path style=" stroke:none;fill-rule:nonzero;fill:rgb(100%,35.686275%,38.431373%);fill-opacity:1;" d="M 22.304688 36.226562 L 28.296875 36.226562 L 28.296875 37.324219 L 22.304688 37.324219 Z M 22.304688 36.226562 "/>
<path style=" stroke:none;fill-rule:nonzero;fill:rgb(12.54902%,81.568627%,76.078431%);fill-opacity:1;" d="M 28.585938 36.226562 L 33.6875 36.226562 L 33.6875 37.324219 L 28.585938 37.324219 Z M 28.585938 36.226562 "/>
<path style=" stroke:none;fill-rule:nonzero;fill:rgb(12.54902%,81.568627%,76.078431%);fill-opacity:1;" d="M 11.8125 38.152344 L 17.746094 38.152344 L 17.746094 39.25 L 11.8125 39.25 Z M 11.8125 38.152344 "/>
<path style=" stroke:none;fill-rule:nonzero;fill:rgb(98.039216%,82.352941%,30.196078%);fill-opacity:1;" d="M 18.429688 38.152344 L 28.953125 38.152344 L 28.953125 39.25 L 18.429688 39.25 Z M 18.429688 38.152344 "/>
<path style=" stroke:none;fill-rule:nonzero;fill:rgb(100%,100%,100%);fill-opacity:1;" d="M 18.808594 33.839844 L 19.246094 33.839844 L 19.246094 35.15625 L 18.808594 35.15625 Z M 18.808594 33.839844 "/>
<path style=" stroke:none;fill-rule:nonzero;fill:rgb(100%,100%,100%);fill-opacity:1;" d="M 30.1875 38.152344 L 30.625 38.152344 L 30.625 39.46875 L 30.1875 39.46875 Z M 30.1875 38.152344 "/>
<path style=" stroke:none;fill-rule:nonzero;fill:rgb(86.27451%,89.019608%,85.882353%);fill-opacity:1;" d="M 45.347656 15.234375 L 68.371094 15.234375 L 68.371094 20.542969 L 45.347656 20.542969 Z M 45.347656 15.234375 "/>
<path style=" stroke:none;fill-rule:nonzero;fill:rgb(86.27451%,89.019608%,85.882353%);fill-opacity:1;" d="M 45.347656 21.296875 L 56.3125 21.296875 L 56.3125 28.304688 L 45.347656 28.304688 Z M 45.347656 21.296875 "/>
<path style=" stroke:none;fill-rule:nonzero;fill:rgb(86.27451%,89.019608%,85.882353%);fill-opacity:1;" d="M 57.40625 21.296875 L 68.371094 21.296875 L 68.371094 28.304688 L 57.40625 28.304688 Z M 57.40625 21.296875 "/>
<path style=" stroke:none;fill-rule:nonzero;fill:rgb(86.27451%,89.019608%,85.882353%);fill-opacity:1;" d="M 45.378906 29.308594 L 68.339844 29.308594 L 68.339844 29.648438 L 45.378906 29.648438 Z M 45.378906 32.519531 L 60.460938 32.519531 L 60.460938 32.855469 L 45.378906 32.855469 Z M 45.378906 31.449219 L 68.339844 31.449219 L 68.339844 31.789062 L 45.378906 31.789062 Z M 45.378906 30.378906 L 68.339844 30.378906 L 68.339844 30.71875 L 45.378906 30.71875 Z M 45.378906 30.378906 "/>
<path style=" stroke:none;fill-rule:nonzero;fill:rgb(86.27451%,89.019608%,85.882353%);fill-opacity:1;" d="M 45.320312 33.691406 L 52.164062 33.691406 L 52.164062 40.476562 L 45.320312 40.476562 Z M 61.554688 33.691406 L 68.398438 33.691406 L 68.398438 40.476562 L 61.554688 40.476562 Z M 53.4375 33.691406 L 60.28125 33.691406 L 60.28125 40.476562 L 53.4375 40.476562 Z M 53.4375 33.691406 "/>
<path style=" stroke:none;fill-rule:nonzero;fill:rgb(86.27451%,89.019608%,85.882353%);fill-opacity:1;" d="M 45.378906 41.421875 L 68.339844 41.421875 L 68.339844 41.757812 L 45.378906 41.757812 Z M 45.378906 44.628906 L 60.460938 44.628906 L 60.460938 44.96875 L 45.378906 44.96875 Z M 45.378906 43.558594 L 68.339844 43.558594 L 68.339844 43.898438 L 45.378906 43.898438 Z M 45.378906 42.488281 L 68.339844 42.488281 L 68.339844 42.828125 L 45.378906 42.828125 Z M 45.378906 42.488281 "/>
</g>
</svg>
